<svg width="260" height="156" viewBox="0 0 260 156" fill="none" xmlns="http://www.w3.org/2000/svg">
<g clip-path="url(#clip0)">
<path d="M100.946 139.772C99.5474 140.265 98.0453 140.388 96.5849 140.131C95.1244 139.873 93.7549 139.243 92.6081 138.302C89.6876 135.847 88.772 131.804 88.0269 128.059L85.8232 116.984L90.4369 120.165C93.7548 122.453 97.1474 124.814 99.4447 128.127C101.742 131.441 102.745 135.964 100.899 139.549" fill="#E6E6E6"/>
<path d="M100.552 153.181C101.019 149.775 101.499 146.325 101.172 142.883C100.881 139.826 99.9492 136.84 98.0529 134.392C97.0463 133.094 95.8214 131.983 94.4334 131.107C94.0715 130.879 93.7384 131.453 94.0987 131.681C96.5004 133.201 98.358 135.445 99.4037 138.09C100.559 141.032 100.744 144.238 100.545 147.363C100.425 149.252 100.17 151.13 99.9126 153.004C99.8923 153.089 99.9049 153.179 99.9479 153.254C99.9909 153.33 100.061 153.387 100.144 153.413C100.229 153.436 100.319 153.424 100.396 153.381C100.472 153.337 100.528 153.266 100.552 153.181Z" fill="#F2F2F2"/>
<path d="M96.0543 147.154C95.4543 148.067 94.6296 148.81 93.6595 149.312C92.6895 149.813 91.6069 150.056 90.516 150.016C87.7124 149.883 85.3751 147.924 83.2711 146.064L77.0478 140.562L81.1666 140.364C84.1285 140.222 87.1669 140.09 89.9881 141.005C92.8093 141.919 95.4111 144.12 95.927 147.044" fill="#E6E6E6"/>
<path d="M101.872 155.139C99.6241 151.157 97.0171 146.731 92.3589 145.316C91.0637 144.924 89.7055 144.784 88.3576 144.903C87.9328 144.939 88.0389 145.595 88.463 145.558C90.7223 145.371 92.9773 145.968 94.8483 147.25C96.6487 148.477 98.0506 150.183 99.237 151.992C99.9638 153.1 100.615 154.256 101.266 155.409C101.474 155.778 102.082 155.512 101.872 155.139V155.139Z" fill="#F2F2F2"/>
<path d="M162.113 75.3657L113.112 116.031C112.496 116.542 111.702 116.786 110.906 116.712C110.109 116.637 109.375 116.249 108.863 115.633L88.2073 90.6773C87.6974 90.06 87.453 89.2653 87.5276 88.4677C87.6021 87.6701 87.9896 86.9347 88.605 86.4228L137.606 45.7573C138.222 45.2468 139.016 45.002 139.813 45.0767C140.609 45.1514 141.344 45.5394 141.855 46.1556L162.511 71.1112C163.021 71.7285 163.265 72.5232 163.191 73.3208C163.116 74.1184 162.729 74.8538 162.113 75.3657Z" fill="#CCCCCC"/>
<path d="M160.15 74.1412L112.275 113.872C111.958 114.135 111.549 114.261 111.138 114.222C110.728 114.184 110.35 113.984 110.086 113.667L90.3637 89.839C90.1011 89.521 89.9752 89.1116 90.0136 88.7007C90.052 88.2899 90.2516 87.911 90.5686 87.6473L138.443 47.9166C138.761 47.6537 139.17 47.5276 139.58 47.566C139.99 47.6045 140.369 47.8044 140.632 48.1218L160.354 71.9495C160.617 72.2675 160.743 72.6769 160.705 73.0878C160.666 73.4986 160.467 73.8775 160.15 74.1412Z" fill="white"/>
<path d="M162.357 82.458L152.51 81.5351L159.557 75.9812L163.354 80.5679C163.502 80.7429 163.594 80.9586 163.617 81.1868C163.641 81.415 163.595 81.6449 163.486 81.8466C163.414 81.9835 163.316 82.1049 163.198 82.2039C163.081 82.2999 162.947 82.3718 162.803 82.4154C162.658 82.459 162.507 82.4735 162.357 82.458Z" fill="#CCCCCC"/>
<path d="M142.583 64.7978L118.364 84.8968C118.216 85.0196 118.045 85.112 117.862 85.1687C117.678 85.2255 117.485 85.2454 117.294 85.2275C117.103 85.2096 116.917 85.1541 116.747 85.0642C116.577 84.9744 116.427 84.8519 116.304 84.7037C116.181 84.5556 116.089 84.3848 116.032 84.2009C115.976 84.0171 115.956 83.8239 115.974 83.6324C115.992 83.4408 116.047 83.2547 116.137 83.0846C116.227 82.9145 116.349 82.7637 116.497 82.641L140.716 62.5419C140.864 62.4192 141.034 62.3268 141.218 62.2701C141.401 62.2133 141.594 62.1933 141.786 62.2113C141.977 62.2292 142.163 62.2847 142.333 62.3746C142.503 62.4644 142.653 62.5869 142.776 62.735C142.898 62.8832 142.991 63.054 143.047 63.2378C143.104 63.4217 143.124 63.6149 143.106 63.8064C143.088 63.998 143.033 64.1841 142.943 64.3542C142.853 64.5243 142.731 64.675 142.583 64.7978Z" fill="#CCCCCC"/>
<path d="M130.73 66.5479L114.396 80.1031C114.097 80.3511 113.713 80.47 113.326 80.4338C112.94 80.3976 112.584 80.2092 112.336 79.91C112.089 79.6109 111.97 79.2255 112.006 78.8387C112.042 78.4518 112.23 78.0952 112.529 77.8473L128.863 64.2921C129.161 64.0441 129.546 63.9252 129.933 63.9614C130.319 63.9976 130.675 64.186 130.923 64.4852C131.17 64.7843 131.289 65.1697 131.253 65.5565C131.217 65.9434 131.029 66.3 130.73 66.5479Z" fill="#CCCCCC"/>
<path d="M105.421 94.2703C107.946 94.2703 109.993 92.2206 109.993 89.6922C109.993 87.1638 107.946 85.1141 105.421 85.1141C102.896 85.1141 100.849 87.1638 100.849 89.6922C100.849 92.2206 102.896 94.2703 105.421 94.2703Z" fill="#8E97FD"/>
<path d="M141.79 80.5155C142.598 80.5155 143.253 79.8596 143.253 79.0505C143.253 78.2414 142.598 77.5855 141.79 77.5855C140.982 77.5855 140.327 78.2414 140.327 79.0505C140.327 79.8596 140.982 80.5155 141.79 80.5155Z" fill="#E6E6E6"/>
<path d="M145.732 77.2435C146.54 77.2435 147.195 76.5877 147.195 75.7786C147.195 74.9695 146.54 74.3136 145.732 74.3136C144.924 74.3136 144.269 74.9695 144.269 75.7786C144.269 76.5877 144.924 77.2435 145.732 77.2435Z" fill="#E6E6E6"/>
<path d="M149.675 73.9716C150.483 73.9716 151.138 73.3157 151.138 72.5066C151.138 71.6975 150.483 71.0417 149.675 71.0417C148.867 71.0417 148.212 71.6975 148.212 72.5066C148.212 73.3157 148.867 73.9716 149.675 73.9716Z" fill="#E6E6E6"/>
<path d="M126.356 152.588L129.715 152.587L131.312 139.615L126.355 139.615L126.356 152.588Z" fill="#FFB8B8"/>
<path d="M125.499 151.49L132.114 151.489H132.114C132.668 151.489 133.216 151.599 133.727 151.811C134.239 152.023 134.703 152.334 135.095 152.726C135.486 153.118 135.797 153.583 136.009 154.095C136.22 154.607 136.329 155.156 136.329 155.71V155.847L125.499 155.848L125.499 151.49Z" fill="#2F2E41"/>
<path d="M114.301 152.588L117.66 152.587L119.258 139.615L114.3 139.615L114.301 152.588Z" fill="#FFB8B8"/>
<path d="M113.444 151.49L120.059 151.489H120.059C120.613 151.489 121.161 151.599 121.672 151.811C122.184 152.023 122.649 152.334 123.04 152.726C123.431 153.118 123.742 153.583 123.954 154.095C124.166 154.607 124.275 155.156 124.275 155.71V155.847L113.444 155.848L113.444 151.49Z" fill="#2F2E41"/>
<path d="M117.672 148.618H117.671L114.815 148.618C114.495 148.619 114.188 148.495 113.958 148.273C113.728 148.051 113.593 147.747 113.583 147.427L113.493 144.925C112.771 124.915 112.024 104.224 116.649 94.9242L116.685 94.851L131.994 94.2962L135.068 122.528C135.199 123.732 135.151 124.949 134.926 126.139L130.862 147.578C130.807 147.869 130.65 148.13 130.419 148.314C130.188 148.498 129.898 148.593 129.603 148.582L126.395 148.477C126.227 148.471 126.062 148.43 125.91 148.357C125.759 148.284 125.623 148.181 125.513 148.054C125.403 147.927 125.319 147.779 125.268 147.618C125.217 147.458 125.199 147.289 125.216 147.121L127.736 127.293C127.822 126.437 127.745 125.573 127.508 124.746L124.373 113.774C124.347 113.683 124.291 113.604 124.214 113.55C124.137 113.496 124.043 113.47 123.949 113.477C123.855 113.483 123.766 113.522 123.698 113.587C123.629 113.651 123.584 113.737 123.571 113.831L118.892 147.554C118.851 147.848 118.704 148.118 118.48 148.314C118.256 148.509 117.969 148.617 117.672 148.618Z" fill="#2F2E41"/>
<path d="M119.502 66.0707C123.219 66.0707 126.231 63.0541 126.231 59.3328C126.231 55.6116 123.219 52.5949 119.502 52.5949C115.786 52.5949 112.773 55.6116 112.773 59.3328C112.773 63.0541 115.786 66.0707 119.502 66.0707Z" fill="#FFB8B8"/>
<path d="M131.277 96.3802H117.353C117.176 96.3802 117.001 96.3421 116.84 96.2684C116.679 96.1947 116.536 96.0872 116.42 95.9531C116.304 95.8191 116.219 95.6616 116.169 95.4915C116.12 95.3214 116.107 95.1426 116.133 94.9673L116.821 90.2498L112.781 79.1246C112.364 77.9761 112.209 76.7487 112.328 75.5324C112.446 74.3161 112.835 73.1418 113.466 72.0956C114.097 71.0494 114.953 70.1579 115.973 69.4865C116.993 68.815 118.15 68.3807 119.359 68.2153C121.082 67.9747 122.836 68.2928 124.366 69.1228C125.895 69.9529 127.119 71.2515 127.858 72.8283L128.745 74.7187L132.489 94.9207C132.522 95.0988 132.515 95.2821 132.47 95.4574C132.424 95.6327 132.34 95.7958 132.225 95.9351C132.109 96.0744 131.964 96.1865 131.8 96.2634C131.636 96.3404 131.458 96.3802 131.277 96.3802H131.277Z" fill="#8E97FD"/>
<path d="M101.883 108.214C102.302 108.116 102.695 107.928 103.034 107.662C103.372 107.396 103.648 107.059 103.843 106.675C104.037 106.291 104.145 105.868 104.159 105.438C104.173 105.007 104.092 104.579 103.923 104.183L114.773 79.6376L108.566 78.0722L99.8526 102.691C99.207 103.021 98.7044 103.575 98.4401 104.251C98.1757 104.926 98.168 105.675 98.4183 106.356C98.6686 107.037 99.1596 107.602 99.7982 107.944C100.437 108.287 101.179 108.383 101.883 108.214H101.883Z" fill="#FFB8B8"/>
<path d="M113.304 84.0273L107.267 81.198C107.096 81.1175 106.943 81.0008 106.821 80.856C106.698 80.7112 106.608 80.5417 106.557 80.3589C106.505 80.1761 106.494 79.9843 106.523 79.7967C106.553 79.6091 106.622 79.43 106.727 79.2717L110.395 73.724C110.812 72.847 111.559 72.1711 112.472 71.8445C113.386 71.5178 114.391 71.567 115.268 71.9814C116.146 72.3957 116.823 73.1413 117.152 74.0548C117.481 74.9683 117.436 75.9753 117.025 76.855L115.128 83.2094C115.073 83.3913 114.981 83.5593 114.855 83.7021C114.73 83.8448 114.576 83.9589 114.403 84.0365C114.23 84.1141 114.042 84.1535 113.852 84.1519C113.663 84.1503 113.476 84.1078 113.304 84.0273H113.304Z" fill="#8E97FD"/>
<path d="M147.144 45.0519C147.275 45.4623 147.314 45.8965 147.26 46.3238C147.205 46.7512 147.058 47.1613 146.827 47.5254C146.597 47.8895 146.29 48.1986 145.928 48.431C145.566 48.6634 145.157 48.8134 144.73 48.8705L129.232 70.7717L124.711 66.2352L141.367 46.1335C141.319 45.4098 141.537 44.6934 141.981 44.1202C142.425 43.547 143.064 43.1567 143.776 43.0234C144.488 42.8901 145.224 43.023 145.845 43.3968C146.465 43.7707 146.928 44.3596 147.144 45.0519Z" fill="#FFB8B8"/>
<path d="M132.816 68.201C132.838 68.3896 132.819 68.5808 132.761 68.7614C132.703 68.9421 132.606 69.108 132.478 69.2479L127.999 74.1335C127.455 74.938 126.614 75.4937 125.662 75.6787C124.709 75.8637 123.722 75.663 122.917 75.1205C122.112 74.578 121.555 73.738 121.368 72.7847C121.18 71.8314 121.378 70.8426 121.918 70.0352L124.798 64.0389C124.88 63.8678 124.998 63.7164 125.144 63.5951C125.29 63.4738 125.46 63.3854 125.643 63.336C125.826 63.2865 126.018 63.2771 126.205 63.3085C126.392 63.3398 126.57 63.4112 126.727 63.5177L132.245 67.2605C132.403 67.3669 132.535 67.506 132.633 67.6684C132.732 67.8307 132.794 68.0124 132.816 68.201Z" fill="#8E97FD"/>
<path d="M128.344 56.5125C128.34 55.9027 128.255 55.2961 128.092 54.7085C127.008 50.6971 123.006 48.2895 118.989 48.8937C118.208 48.6694 117.4 48.556 116.587 48.5569C114.52 48.5569 112.521 49.297 110.951 50.6436C109.381 51.9902 108.344 53.8546 108.026 55.8999L104.782 76.8131H122.316L125.148 58.563C125.253 57.8848 125.277 57.1965 125.221 56.5125H128.344Z" fill="#2F2E41"/>
<path d="M150.137 156H92.3288C92.2561 156 92.1864 155.971 92.1351 155.92C92.0837 155.868 92.0548 155.798 92.0548 155.726C92.0548 155.653 92.0837 155.583 92.1351 155.532C92.1864 155.48 92.2561 155.451 92.3288 155.451H150.137C150.21 155.451 150.279 155.48 150.331 155.532C150.382 155.583 150.411 155.653 150.411 155.726C150.411 155.798 150.382 155.868 150.331 155.92C150.279 155.971 150.21 156 150.137 156Z" fill="#CCCCCC"/>
<path d="M208.375 21.3067C208.776 21.2681 209.181 21.318 209.56 21.4528C209.94 21.5876 210.285 21.8042 210.572 22.0872C210.859 22.3701 211.081 22.7127 211.221 23.0906C211.362 23.4686 211.418 23.8728 211.385 24.2748L220.346 28.2238L216.072 30.9866L208.218 26.813C207.547 26.7137 206.936 26.3714 206.5 25.8511C206.065 25.3307 205.835 24.6684 205.854 23.9897C205.874 23.311 206.141 22.663 206.606 22.1685C207.07 21.674 207.7 21.3674 208.375 21.3067V21.3067Z" fill="#A0616A"/>
<path d="M244.521 16.3806C248.237 16.3806 251.25 13.3639 251.25 9.64269C251.25 5.92146 248.237 2.9048 244.521 2.9048C240.805 2.9048 237.792 5.92146 237.792 9.64269C237.792 13.3639 240.805 16.3806 244.521 16.3806Z" fill="#A0616A"/>
<path d="M232.342 105.718L228.984 105.718L227.386 92.745L232.343 92.7453L232.342 105.718Z" fill="#A0616A"/>
<path d="M233.199 108.978L222.369 108.978V108.84C222.369 108.286 222.478 107.737 222.69 107.225C222.901 106.713 223.212 106.248 223.603 105.856C223.995 105.464 224.46 105.153 224.971 104.941C225.482 104.729 226.031 104.619 226.584 104.619H226.585L233.199 104.62L233.199 108.978Z" fill="#2F2E41"/>
<path d="M246.315 105.718L242.956 105.718L241.358 92.745L246.316 92.7453L246.315 105.718Z" fill="#A0616A"/>
<path d="M247.172 108.978L236.341 108.978V108.84C236.341 108.286 236.45 107.737 236.662 107.225C236.874 106.713 237.185 106.248 237.576 105.856C237.967 105.464 238.432 105.153 238.944 104.941C239.455 104.729 240.003 104.619 240.557 104.619H240.557L247.172 104.62L247.172 108.978Z" fill="#2F2E41"/>
<path d="M246.156 102.955C246.106 102.955 246.055 102.952 246.005 102.945L241.089 102.339C240.801 102.304 240.534 102.169 240.337 101.956C240.139 101.743 240.023 101.468 240.008 101.178L238.575 68.8711C238.571 68.7795 238.535 68.6921 238.475 68.6229C238.415 68.5536 238.333 68.5065 238.243 68.4891C238.153 68.4716 238.06 68.4848 237.978 68.5265C237.897 68.5682 237.831 68.636 237.793 68.7192L234.112 81.005L233.354 100.74C233.347 100.91 233.306 101.077 233.232 101.23C233.158 101.383 233.053 101.52 232.923 101.63C232.794 101.741 232.643 101.824 232.481 101.873C232.318 101.923 232.147 101.938 231.978 101.918L227.72 101.416C227.416 101.381 227.135 101.233 226.934 101.002C226.733 100.771 226.625 100.473 226.632 100.166L226.993 81.5898L229.878 52.4305L230.007 52.4353L247.547 53.1123L247.389 101.724C247.388 102.051 247.257 102.364 247.026 102.595C246.795 102.825 246.482 102.955 246.156 102.955H246.156Z" fill="#2F2E41"/>
<path d="M246.882 55.7769C246.872 55.7769 246.861 55.7769 246.85 55.7766L229.185 55.3131C229.011 55.3086 228.841 55.2676 228.685 55.1927C228.529 55.1179 228.39 55.0109 228.278 54.8788C228.165 54.7467 228.082 54.5924 228.034 54.426C227.985 54.2595 227.972 54.0846 227.995 53.9128L231.39 28.896C231.602 27.2068 232.167 25.5814 233.049 24.1259C233.931 22.6703 235.109 21.4173 236.508 20.4488C237.738 19.601 239.135 19.0265 240.605 18.7641C242.075 18.5016 243.584 18.5572 245.03 18.9271C251.196 20.4916 254.896 27.1214 253.276 33.706L248.08 54.8376C248.012 55.1051 247.858 55.3425 247.642 55.5126C247.425 55.6827 247.158 55.7757 246.882 55.7769Z" fill="#3F3D56"/>
<path d="M223.707 35.9113C222.543 35.9127 221.403 35.5738 220.429 34.9361L210.127 28.1684C209.976 28.0693 209.849 27.9384 209.754 27.7847C209.659 27.6311 209.599 27.4585 209.579 27.2791C209.558 27.0997 209.576 26.918 209.633 26.7466C209.69 26.5753 209.784 26.4185 209.908 26.2874L211.46 24.6468C211.629 24.4669 211.849 24.3423 212.09 24.2891C212.331 24.2359 212.582 24.2567 212.811 24.3486L224.318 28.937L234.978 21.3143C235.477 20.9579 236.044 20.709 236.643 20.5833C237.243 20.4576 237.862 20.4579 238.461 20.5841C239.061 20.7103 239.627 20.9597 240.125 21.3166C240.624 21.6734 241.042 22.1299 241.355 22.6571C241.668 23.1844 241.868 23.7709 241.943 24.3796C242.018 24.9883 241.966 25.606 241.79 26.1934C241.614 26.7809 241.318 27.3254 240.921 27.7926C240.525 28.2597 240.035 28.6393 239.484 28.9073L226.309 35.315C225.498 35.7084 224.608 35.9123 223.707 35.9113Z" fill="#3F3D56"/>
<path d="M246.853 16.0862C248.001 16.3577 249.386 16.5659 250.206 15.7173C250.351 15.5571 250.481 15.3835 250.594 15.1988L251.667 13.559C252.488 12.3028 253.325 11.0139 253.672 9.55323C253.872 8.7139 253.903 7.84318 253.764 6.99164C253.625 6.14009 253.319 5.32471 252.862 4.59285C252.406 3.86099 251.809 3.22725 251.105 2.72843C250.402 2.2296 249.607 1.87565 248.766 1.68713C247.165 1.32808 245.598 0.710292 243.96 0.822983C242.323 0.935673 240.403 0.898676 239.029 -1.52588e-05C239.114 0.400637 239.577 2.17089 239.577 2.17089C239.577 2.17089 237.511 4.0689 237.097 4.54217C237.639 4.3014 238.23 4.18835 238.822 4.21171C239.415 4.23507 239.995 4.39422 240.517 4.67693C241.039 4.95964 241.489 5.35839 241.833 5.84252C242.176 6.32665 242.405 6.88328 242.5 7.46964C242.618 8.18999 242.549 8.98889 242.976 9.58013C243.383 10.1425 244.112 10.3395 244.725 10.6642C245.608 11.1681 246.282 11.9715 246.626 12.9295C246.97 13.8875 246.961 14.937 246.6 15.8888L246.853 16.0862Z" fill="#2F2E41"/>
<path d="M238.773 58.19H182.996C182.294 58.1892 181.622 57.91 181.126 57.4135C180.631 56.9171 180.352 56.244 180.351 55.5419V27.1348C180.352 26.4327 180.631 25.7596 181.126 25.2632C181.622 24.7667 182.294 24.4875 182.996 24.4867H238.773C239.475 24.4875 240.147 24.7667 240.643 25.2632C241.138 25.7596 241.417 26.4327 241.418 27.1348V55.5419C241.417 56.244 241.138 56.9171 240.643 57.4135C240.147 57.91 239.475 58.1892 238.773 58.19Z" fill="#CCCCCC"/>
<path d="M238.132 56.2641H183.637C183.275 56.2637 182.929 56.1199 182.674 55.8641C182.418 55.6084 182.275 55.2616 182.274 54.8999V27.7768C182.275 27.4151 182.418 27.0683 182.674 26.8126C182.929 26.5569 183.275 26.413 183.637 26.4126H238.132C238.494 26.413 238.84 26.5569 239.095 26.8126C239.351 27.0683 239.494 27.4151 239.495 27.7768V54.8999C239.494 55.2616 239.351 55.6084 239.095 55.8641C238.84 56.1199 238.494 56.2637 238.132 56.2641Z" fill="white"/>
<path d="M234.976 63.1121L228.847 56.9752L236.705 57.1741V62.3951C236.707 62.5961 236.648 62.7931 236.537 62.9602C236.425 63.1274 236.266 63.2569 236.08 63.3319C235.955 63.3842 235.821 63.4113 235.686 63.4117C235.554 63.4112 235.423 63.3845 235.301 63.3331C235.179 63.2817 235.069 63.2065 234.976 63.1121Z" fill="#CCCCCC"/>
<path d="M231.497 40.122H203.929C203.589 40.122 203.263 39.9868 203.022 39.746C202.782 39.5052 202.646 39.1786 202.646 38.8381C202.646 38.4976 202.782 38.171 203.022 37.9302C203.263 37.6894 203.589 37.5542 203.929 37.5542H231.497C231.837 37.5542 232.163 37.6894 232.404 37.9302C232.644 38.171 232.779 38.4976 232.779 38.8381C232.779 39.1786 232.644 39.5052 232.404 39.746C232.163 39.9868 231.837 40.122 231.497 40.122Z" fill="#CCCCCC"/>
<path d="M222.521 34.6653H203.929C203.76 34.6656 203.593 34.6325 203.438 34.5681C203.282 34.5037 203.14 34.4092 203.021 34.2899C202.902 34.1707 202.807 34.029 202.742 33.8731C202.678 33.7172 202.645 33.5501 202.645 33.3814C202.645 33.2126 202.678 33.0455 202.742 32.8896C202.807 32.7337 202.902 32.5921 203.021 32.4728C203.14 32.3536 203.282 32.259 203.438 32.1946C203.593 32.1302 203.76 32.0972 203.929 32.0974H222.521C222.861 32.0974 223.188 32.2327 223.428 32.4735C223.669 32.7143 223.804 33.0408 223.804 33.3814C223.804 33.7219 223.669 34.0485 223.428 34.2892C223.188 34.53 222.861 34.6653 222.521 34.6653Z" fill="#CCCCCC"/>
<path d="M192.517 40.122C194.73 40.122 196.524 38.3257 196.524 36.1097C196.524 33.8938 194.73 32.0974 192.517 32.0974C190.304 32.0974 188.51 33.8938 188.51 36.1097C188.51 38.3257 190.304 40.122 192.517 40.122Z" fill="#8E97FD"/>
<path d="M223.001 50.5793C223.71 50.5793 224.284 50.0044 224.284 49.2953C224.284 48.5862 223.71 48.0114 223.001 48.0114C222.293 48.0114 221.719 48.5862 221.719 49.2953C221.719 50.0044 222.293 50.5793 223.001 50.5793Z" fill="#E6E6E6"/>
<path d="M227.489 50.5793C228.197 50.5793 228.771 50.0044 228.771 49.2953C228.771 48.5862 228.197 48.0114 227.489 48.0114C226.781 48.0114 226.207 48.5862 226.207 49.2953C226.207 50.0044 226.781 50.5793 227.489 50.5793Z" fill="#E6E6E6"/>
<path d="M231.977 50.5793C232.685 50.5793 233.259 50.0044 233.259 49.2953C233.259 48.5862 232.685 48.0114 231.977 48.0114C231.269 48.0114 230.695 48.5862 230.695 49.2953C230.695 50.0044 231.269 50.5793 231.977 50.5793Z" fill="#E6E6E6"/>
<path d="M237.91 54.8118C237.954 54.4109 238.086 54.0247 238.295 53.6802C238.505 53.3358 238.787 53.0415 239.122 52.8181C239.458 52.5948 239.838 52.4478 240.236 52.3874C240.634 52.3271 241.041 52.355 241.427 52.469L247.121 44.4943L248.947 49.2492L243.26 56.0931C243.026 56.7302 242.566 57.2592 241.968 57.5797C241.371 57.9002 240.676 57.9899 240.017 57.832C239.357 57.6741 238.778 57.2794 238.39 56.7227C238.002 56.1661 237.831 55.4861 237.91 54.8118H237.91Z" fill="#A0616A"/>
<path d="M244.432 54.3815C244.343 54.389 244.253 54.3867 244.164 54.3747C243.985 54.3508 243.813 54.2877 243.662 54.1901C243.51 54.0924 243.381 53.9625 243.285 53.8096L242.082 51.8979C241.95 51.6892 241.883 51.4454 241.892 51.1984C241.9 50.9513 241.982 50.7125 242.128 50.5131L249.416 40.4852L244.679 28.2566C244.256 27.1807 244.272 25.9813 244.724 24.9171C245.175 23.8528 246.027 23.0089 247.094 22.5671C247.697 22.3139 248.349 22.1976 249.002 22.2266C249.655 22.2556 250.294 22.4293 250.872 22.735C251.45 23.0408 251.954 23.4711 252.346 23.9949C252.739 24.5188 253.01 25.1232 253.141 25.7647L256.08 40.1324C256.285 41.1456 256.225 42.1946 255.905 43.1777C255.586 44.1607 255.019 45.0446 254.258 45.7437L245.16 54.0629C244.959 54.2468 244.703 54.3588 244.432 54.3815Z" fill="#3F3D56"/>
<path d="M259.726 109.638H201.918C201.845 109.638 201.775 109.609 201.724 109.557C201.673 109.506 201.644 109.436 201.644 109.363C201.644 109.291 201.673 109.221 201.724 109.169C201.775 109.118 201.845 109.089 201.918 109.089H259.726C259.799 109.089 259.868 109.118 259.92 109.169C259.971 109.221 260 109.291 260 109.363C260 109.436 259.971 109.506 259.92 109.557C259.868 109.609 259.799 109.638 259.726 109.638Z" fill="#CCCCCC"/>
<path d="M70.3062 41.3628H14.5283C13.8271 41.3621 13.1549 41.0828 12.6591 40.5863C12.1633 40.0899 11.8844 39.4168 11.8836 38.7147V10.3076C11.8844 9.60555 12.1633 8.93244 12.6591 8.43599C13.1549 7.93954 13.8271 7.66029 14.5283 7.6595H70.3062C71.0074 7.66029 71.6796 7.93955 72.1754 8.436C72.6712 8.93245 72.9501 9.60555 72.9509 10.3076V38.7147C72.9501 39.4168 72.6712 40.0899 72.1754 40.5863C71.6796 41.0828 71.0074 41.362 70.3062 41.3628Z" fill="#CCCCCC"/>
<path d="M69.6651 39.4369H15.1694C14.8082 39.4365 14.4619 39.2927 14.2065 39.0369C13.951 38.7812 13.8074 38.4344 13.807 38.0728V10.9496C13.8074 10.5879 13.951 10.2412 14.2065 9.98542C14.4619 9.72968 14.8082 9.58582 15.1694 9.58542H69.6651C70.0263 9.58582 70.3725 9.72968 70.628 9.98542C70.8834 10.2412 71.027 10.5879 71.0274 10.9496V38.0728C71.027 38.4344 70.8834 38.7812 70.628 39.0369C70.3725 39.2927 70.0263 39.4365 69.6651 39.4369Z" fill="white"/>
<path d="M66.5091 46.2849L60.3802 40.148L68.2377 40.3469V45.5679C68.2398 45.769 68.1813 45.9659 68.0698 46.1331C67.9582 46.3002 67.7989 46.4298 67.6126 46.5047C67.4878 46.557 67.354 46.5841 67.2187 46.5845C67.0865 46.5841 66.9557 46.5574 66.8339 46.5059C66.7121 46.4545 66.6017 46.3794 66.5091 46.2849Z" fill="#CCCCCC"/>
<path d="M63.0299 23.2949H35.4615C35.1214 23.2949 34.7953 23.1596 34.5548 22.9188C34.3143 22.678 34.1792 22.3514 34.1792 22.0109C34.1792 21.6704 34.3143 21.3438 34.5548 21.103C34.7953 20.8623 35.1214 20.727 35.4615 20.727H63.0299C63.37 20.727 63.6961 20.8623 63.9366 21.103C64.177 21.3438 64.3121 21.6704 64.3121 22.0109C64.3121 22.3514 64.177 22.678 63.9366 22.9188C63.6961 23.1596 63.37 23.2949 63.0299 23.2949Z" fill="#CCCCCC"/>
<path d="M54.0541 17.8381H35.4615C35.1214 17.8381 34.7953 17.7029 34.5548 17.4621C34.3143 17.2213 34.1792 16.8947 34.1792 16.5542C34.1792 16.2137 34.3143 15.8871 34.5548 15.6463C34.7953 15.4055 35.1214 15.2702 35.4615 15.2702H54.0541C54.3942 15.2702 54.7203 15.4055 54.9608 15.6463C55.2013 15.8871 55.3364 16.2137 55.3364 16.5542C55.3364 16.8947 55.2013 17.2213 54.9608 17.4621C54.7203 17.7029 54.3942 17.8381 54.0541 17.8381Z" fill="#CCCCCC"/>
<path d="M24.0494 23.2949C26.2624 23.2949 28.0564 21.4985 28.0564 19.2826C28.0564 17.0666 26.2624 15.2703 24.0494 15.2703C21.8363 15.2703 20.0423 17.0666 20.0423 19.2826C20.0423 21.4985 21.8363 23.2949 24.0494 23.2949Z" fill="#8E97FD"/>
<path d="M54.5341 33.7521C55.2423 33.7521 55.8164 33.1773 55.8164 32.4682C55.8164 31.7591 55.2423 31.1842 54.5341 31.1842C53.8259 31.1842 53.2519 31.7591 53.2519 32.4682C53.2519 33.1773 53.8259 33.7521 54.5341 33.7521Z" fill="#E6E6E6"/>
<path d="M59.022 33.7521C59.7301 33.7521 60.3042 33.1773 60.3042 32.4682C60.3042 31.7591 59.7301 31.1842 59.022 31.1842C58.3138 31.1842 57.7397 31.7591 57.7397 32.4682C57.7397 33.1773 58.3138 33.7521 59.022 33.7521Z" fill="#E6E6E6"/>
<path d="M63.5099 33.7521C64.218 33.7521 64.7921 33.1773 64.7921 32.4682C64.7921 31.7591 64.218 31.1842 63.5099 31.1842C62.8017 31.1842 62.2276 31.7591 62.2276 32.4682C62.2276 33.1773 62.8017 33.7521 63.5099 33.7521Z" fill="#E6E6E6"/>
<path d="M67.993 4.93015C67.614 5.06675 67.2696 5.28489 66.9839 5.5692C66.6983 5.85351 66.4784 6.19708 66.3397 6.57571C66.201 6.95433 66.1469 7.35881 66.1812 7.76063C66.2155 8.16246 66.3373 8.55187 66.5382 8.90144L60.1217 16.3057L65.1652 16.9748L70.4852 9.84095C71.0493 9.46415 71.4558 8.89324 71.6276 8.23641C71.7994 7.57958 71.7246 6.88246 71.4174 6.27715C71.1102 5.67183 70.592 5.20038 69.9608 4.95212C69.3297 4.70385 68.6295 4.69604 67.993 4.93015Z" fill="#FFB8B8"/>
<path d="M25.1502 7.89446C25.287 8.27375 25.3392 8.67848 25.3029 9.08014C25.2667 9.48179 25.1429 9.87061 24.9404 10.2192C24.7378 10.5678 24.4614 10.8676 24.1306 11.0977C23.7998 11.3277 23.4226 11.4823 23.0257 11.5506L21.4289 21.2226L17.6954 17.762L19.7841 9.10792C19.7137 8.43259 19.8931 7.75487 20.2884 7.20318C20.6837 6.65149 21.2674 6.26416 21.9288 6.11459C22.5903 5.96501 23.2835 6.06358 23.8773 6.39162C24.471 6.71966 24.9239 7.25438 25.1502 7.89445V7.89446Z" fill="#FFB8B8"/>
<path d="M35.1778 105.718L38.5367 105.718L40.1345 92.745L35.1772 92.7453L35.1778 105.718Z" fill="#FFB8B8"/>
<path d="M34.321 104.62L40.9357 104.619H40.936C41.4896 104.619 42.0377 104.729 42.5492 104.941C43.0606 105.153 43.5254 105.464 43.9168 105.856C44.3082 106.248 44.6187 106.713 44.8306 107.225C45.0424 107.737 45.1515 108.286 45.1515 108.84V108.978L34.3212 108.978L34.321 104.62Z" fill="#2F2E41"/>
<path d="M17.9175 105.718L21.2764 105.718L22.8743 92.745L17.917 92.7453L17.9175 105.718Z" fill="#FFB8B8"/>
<path d="M17.0607 104.62L23.6755 104.619H23.6757C24.2293 104.619 24.7775 104.729 25.2889 104.941C25.8004 105.153 26.2651 105.464 26.6565 105.856C27.048 106.248 27.3585 106.713 27.5703 107.225C27.7822 107.737 27.8912 108.286 27.8912 108.84V108.978L17.0609 108.978L17.0607 104.62Z" fill="#2F2E41"/>
<path d="M34.4766 17.148C38.193 17.148 41.2057 14.1314 41.2057 10.4101C41.2057 6.68888 38.193 3.67223 34.4766 3.67223C30.7603 3.67223 27.7476 6.68888 27.7476 10.4101C27.7476 14.1314 30.7603 17.148 34.4766 17.148Z" fill="#FFB8B8"/>
<path d="M33.67 101.408L33.1137 65.908C33.1122 65.8076 33.0742 65.7112 33.0068 65.637C32.9394 65.5627 32.8472 65.5157 32.7475 65.5048C32.6479 65.4938 32.5477 65.5197 32.4658 65.5776C32.3839 65.6355 32.326 65.7213 32.3029 65.819L23.1821 100.543C23.1135 100.821 22.9516 101.067 22.7237 101.239C22.4957 101.412 22.2155 101.501 21.9298 101.492L16.9188 101.277C16.7484 101.27 16.5815 101.227 16.4284 101.152C16.2753 101.077 16.1395 100.971 16.0295 100.84C15.9195 100.71 15.8378 100.558 15.7894 100.394C15.741 100.23 15.727 100.058 15.7484 99.889L23.4878 55.2666L23.5036 55.1407L45.0604 56.1619L45.201 56.1683L40.5784 101.483C40.5541 101.793 40.4142 102.082 40.1865 102.294C39.9587 102.506 39.6598 102.624 39.349 102.625H34.9028C34.5792 102.624 34.269 102.496 34.0386 102.269C33.8082 102.041 33.6759 101.732 33.67 101.408Z" fill="#2F2E41"/>
<path d="M50.696 59.1691L19.4144 56.5986C19.2256 56.5831 19.0429 56.5242 18.8805 56.4266C18.7181 56.3289 18.5803 56.1951 18.4779 56.0355C18.3756 55.8759 18.3113 55.6948 18.2901 55.5063C18.269 55.3178 18.2915 55.127 18.3559 54.9486L23.2821 41.311L23.5656 25.1245C23.5759 24.537 23.7026 23.9573 23.9384 23.4191C24.1741 22.8809 24.5142 22.395 24.939 21.9895C25.3638 21.5839 25.8648 21.2669 26.4129 21.0567C26.961 20.8466 27.5453 20.7475 28.1319 20.7652L30.2122 18.877H37.834L38.4976 19.7483L43.801 20.5643C44.7456 20.7136 45.6172 21.1631 46.2872 21.8464C46.9571 22.5298 47.3899 23.4107 47.5216 24.3591L52.0186 57.7742C52.042 57.9485 52.028 58.1258 51.9774 58.2942C51.9268 58.4627 51.8409 58.6183 51.7254 58.7508C51.6098 58.8833 51.4674 58.9896 51.3075 59.0624C51.1476 59.1353 50.9741 59.1731 50.7984 59.1734C50.7644 59.1734 50.7302 59.1721 50.696 59.1691Z" fill="#2F2E41"/>
<path d="M44.6012 22.1334L57.9391 18.2204L63.9755 10.2626C64.1417 10.0434 64.3763 9.88615 64.6419 9.81577C64.9076 9.74538 65.1892 9.76594 65.4419 9.87416L69.2107 11.4872C69.3714 11.556 69.5157 11.6581 69.6339 11.787C69.7522 11.9158 69.8417 12.0683 69.8966 12.2344C69.9515 12.4005 69.9705 12.5765 69.9524 12.7505C69.9342 12.9245 69.8793 13.0927 69.7913 13.2438L65.2802 20.9953C64.5456 22.2633 63.4275 23.2647 62.0874 23.8547L46.3994 30.7987L44.6012 22.1334Z" fill="#2F2E41"/>
<path d="M19.0118 27.9868C18.2147 27.4118 17.579 26.6409 17.1661 25.7483C16.7533 24.8557 16.5771 23.8716 16.6546 22.891L17.2399 15.1253C17.264 14.8152 17.404 14.5255 17.6318 14.3139C17.8596 14.1024 18.1587 13.9845 18.4694 13.9838H18.4803L22.9 14.0232C23.081 14.0248 23.2595 14.0664 23.4227 14.1449C23.5859 14.2234 23.7298 14.337 23.8443 14.4775C23.9587 14.6179 24.0409 14.782 24.0849 14.9578C24.1289 15.1337 24.1336 15.3171 24.0989 15.495L23.2788 19.6845L29.1309 22.1605L24.2029 31.7602L19.0118 27.9868Z" fill="#2F2E41"/>
<path d="M38.3912 2.33076C38.3912 2.33076 31.3542 -1.46332 27.5186 3.01451C23.683 7.49233 28.9799 14.4947 28.9799 14.4947L36.5273 15.4478C36.5273 15.4478 36.8013 10.3105 38.5983 10.4103C40.3953 10.51 45.9761 4.0275 38.3912 2.33076Z" fill="#2F2E41"/>
<path d="M58.0822 109.363H0.273973C0.201311 109.363 0.131624 109.335 0.0802445 109.283C0.0288647 109.232 0 109.162 0 109.089C0 109.016 0.0288647 108.947 0.0802445 108.895C0.131624 108.844 0.201311 108.815 0.273973 108.815H58.0822C58.1549 108.815 58.2245 108.844 58.2759 108.895C58.3273 108.947 58.3562 109.016 58.3562 109.089C58.3562 109.162 58.3273 109.232 58.2759 109.283C58.2245 109.335 58.1549 109.363 58.0822 109.363Z" fill="#CCCCCC"/>
</g>
<defs>
<clipPath id="clip0">
<rect width="260" height="156" fill="white"/>
</clipPath>
</defs>
</svg>
