<svg width="259" height="186" viewBox="0 0 259 186" fill="none" xmlns="http://www.w3.org/2000/svg">
<g clip-path="url(#clip0)">
<path d="M258.626 184.574H0.374277C0.275013 184.574 0.179814 184.534 0.109623 184.465C0.0394324 184.395 0 184.3 0 184.201C0 184.103 0.0394324 184.008 0.109623 183.938C0.179814 183.869 0.275013 183.829 0.374277 183.829H258.626C258.725 183.829 258.82 183.869 258.89 183.938C258.961 184.008 259 184.103 259 184.201C259 184.3 258.961 184.395 258.89 184.465C258.82 184.534 258.725 184.574 258.626 184.574Z" fill="#CCCCCC"/>
<path d="M233.064 119.68H81.1075C80.4623 119.68 79.8435 119.935 79.3873 120.388C78.9311 120.842 78.6747 121.457 78.6747 122.099C78.6747 122.74 78.9311 123.355 79.3873 123.809C79.8435 124.262 80.4623 124.517 81.1075 124.517H85.4117V182.378C85.4117 183.019 85.6681 183.634 86.1243 184.088C86.5805 184.541 87.1993 184.796 87.8445 184.796C88.4898 184.796 89.1086 184.541 89.5648 184.088C90.021 183.634 90.2773 183.019 90.2773 182.378L90.3143 124.517H223.52V182.378C223.52 183.019 223.776 183.634 224.233 184.088C224.689 184.541 225.308 184.796 225.953 184.796C226.598 184.796 227.217 184.541 227.673 184.088C228.129 183.634 228.386 183.019 228.386 182.378V125.793L229.094 124.517H233.064C233.709 124.517 234.328 124.262 234.784 123.809C235.241 123.355 235.497 122.74 235.497 122.099C235.497 121.457 235.241 120.842 234.784 120.388C234.328 119.935 233.709 119.68 233.064 119.68Z" fill="#CCCCCC"/>
<path d="M165.354 120.946H119.324C118.433 120.945 117.579 120.592 116.948 119.966C116.318 119.339 115.964 118.49 115.963 117.604V92.4098C115.964 91.5237 116.318 90.6743 116.948 90.0477C117.579 89.4212 118.433 89.0687 119.324 89.0677H165.354C166.245 89.0687 167.099 89.4212 167.73 90.0477C168.36 90.6743 168.714 91.5237 168.715 92.4098V117.604C168.714 118.49 168.36 119.339 167.73 119.966C167.099 120.592 166.245 120.945 165.354 120.946Z" fill="#3F3D56"/>
<path d="M165.353 91.6399H119.324C119.119 91.6403 118.922 91.7216 118.777 91.866C118.632 92.0103 118.55 92.206 118.55 92.4101V117.604C118.55 117.809 118.632 118.004 118.777 118.149C118.922 118.293 119.119 118.374 119.324 118.375H165.353C165.559 118.374 165.755 118.293 165.901 118.149C166.046 118.004 166.128 117.809 166.128 117.604V92.4101C166.128 92.206 166.046 92.0103 165.901 91.866C165.755 91.7216 165.559 91.6403 165.353 91.6399Z" fill="white"/>
<path d="M146.265 109.477C146.265 109.477 140.754 108.215 137.724 110.529C134.693 112.843 141.581 118.103 141.581 118.103L146.265 109.477Z" fill="#2F2E41"/>
<path d="M142.609 107.092C145.479 107.092 147.806 104.779 147.806 101.925C147.806 99.0711 145.479 96.7577 142.609 96.7577C139.738 96.7577 137.411 99.0711 137.411 101.925C137.411 104.779 139.738 107.092 142.609 107.092Z" fill="#A0616A"/>
<path d="M138.59 94.6714C138.936 94.0865 139.439 93.6082 140.041 93.2894C140.644 92.9706 141.324 92.8235 142.005 92.8646C142.718 92.9534 143.414 93.147 144.07 93.439L147.468 94.7567C148.347 95.0977 149.31 95.5153 149.691 96.3735C150.045 97.17 149.781 98.0898 149.514 98.919L148.242 102.861C148.102 101.969 147.86 101.095 147.522 100.257C147.179 99.4131 146.558 98.7097 145.761 98.2611C144.879 97.8109 143.838 97.8203 142.848 97.8677C141.444 97.9348 139.919 98.1123 138.922 99.0963C138.392 99.655 138.034 100.352 137.887 101.105C137.743 101.855 137.67 102.616 137.67 103.379C137.095 102.396 136.61 101.363 136.222 100.293C135.903 99.4958 135.721 98.6512 135.684 97.7942C135.65 96.9299 135.939 96.0837 136.494 95.4176C136.776 95.0922 137.143 94.8514 137.555 94.7225C137.967 94.5936 138.407 94.5816 138.826 94.688L138.59 94.6714Z" fill="#2F2E41"/>
<path d="M155.019 113.958C154.971 113.783 154.871 113.627 154.733 113.509C154.595 113.39 154.425 113.315 154.245 113.292C154.233 113.284 154.22 113.276 154.207 113.27L146.448 108.947C146.226 108.823 145.965 108.789 145.72 108.852C145.474 108.915 145.261 109.07 145.127 109.284L143.005 112.7L139.809 109.523L139.758 109.472C139.594 109.309 139.377 109.209 139.146 109.189C138.915 109.168 138.684 109.23 138.494 109.362L132.117 113.802C132.106 113.802 132.095 113.805 132.084 113.805C131.779 113.856 131.5 114.009 131.294 114.238C131.087 114.467 130.966 114.76 130.95 115.067L130.785 118.375H156.251L155.019 113.958Z" fill="#8E97FD"/>
<path d="M169.232 117.861H164.319C164.319 117.725 164.265 117.594 164.168 117.497C164.071 117.401 163.939 117.347 163.802 117.347H162.25C162.113 117.347 161.982 117.401 161.885 117.497C161.788 117.594 161.733 117.725 161.733 117.861H160.182C160.182 117.725 160.127 117.594 160.03 117.497C159.933 117.401 159.802 117.347 159.665 117.347H158.113C157.976 117.347 157.844 117.401 157.747 117.497C157.65 117.594 157.596 117.725 157.596 117.861H156.044C156.044 117.725 155.99 117.594 155.893 117.497C155.796 117.401 155.664 117.347 155.527 117.347H153.976C153.838 117.347 153.707 117.401 153.61 117.497C153.513 117.594 153.458 117.725 153.458 117.861H151.907C151.907 117.725 151.852 117.594 151.755 117.497C151.658 117.401 151.527 117.347 151.39 117.347H149.838C149.701 117.347 149.569 117.401 149.472 117.497C149.375 117.594 149.321 117.725 149.321 117.861H147.769C147.769 117.725 147.715 117.594 147.618 117.497C147.521 117.401 147.389 117.347 147.252 117.347H145.701C145.563 117.347 145.432 117.401 145.335 117.497C145.238 117.594 145.183 117.725 145.183 117.861H143.632C143.632 117.725 143.577 117.594 143.48 117.497C143.383 117.401 143.252 117.347 143.115 117.347H141.563C141.426 117.347 141.294 117.401 141.197 117.497C141.1 117.594 141.046 117.725 141.046 117.861H139.494C139.494 117.725 139.44 117.594 139.343 117.497C139.246 117.401 139.114 117.347 138.977 117.347H137.426C137.289 117.347 137.157 117.401 137.06 117.497C136.963 117.594 136.909 117.725 136.909 117.861H135.357C135.357 117.725 135.302 117.594 135.205 117.497C135.108 117.401 134.977 117.347 134.84 117.347H133.288C133.151 117.347 133.019 117.401 132.923 117.497C132.826 117.594 132.771 117.725 132.771 117.861H131.219C131.219 117.725 131.165 117.594 131.068 117.497C130.971 117.401 130.839 117.347 130.702 117.347H129.151C129.014 117.347 128.882 117.401 128.785 117.497C128.688 117.594 128.634 117.725 128.634 117.861H127.082C127.082 117.725 127.028 117.594 126.931 117.497C126.834 117.401 126.702 117.347 126.565 117.347H125.013C124.876 117.347 124.745 117.401 124.648 117.497C124.551 117.594 124.496 117.725 124.496 117.861H122.945C122.945 117.725 122.89 117.594 122.793 117.497C122.696 117.401 122.565 117.347 122.427 117.347H120.876C120.739 117.347 120.607 117.401 120.51 117.497C120.413 117.594 120.359 117.725 120.359 117.861H115.445C115.034 117.862 114.64 118.024 114.35 118.313C114.059 118.603 113.896 118.995 113.896 119.403C113.896 119.812 114.059 120.204 114.35 120.493C114.64 120.782 115.034 120.945 115.445 120.946H169.232C169.644 120.946 170.039 120.783 170.33 120.494C170.621 120.205 170.784 119.812 170.784 119.403C170.784 118.994 170.621 118.602 170.33 118.313C170.039 118.023 169.644 117.861 169.232 117.861Z" fill="#3F3D56"/>
<path d="M107.447 108.903V119.145H81.6362C80.9446 119.169 80.2553 119.054 79.6094 118.808C78.9634 118.561 78.374 118.188 77.8763 117.71C77.3785 117.232 76.9827 116.659 76.7123 116.026C76.442 115.393 76.3027 114.712 76.3027 114.024C76.3027 113.336 76.442 112.655 76.7123 112.022C76.9827 111.389 77.3785 110.816 77.8763 110.338C78.374 109.861 78.9634 109.487 79.6094 109.241C80.2553 108.994 80.9446 108.879 81.6362 108.903H107.447Z" fill="#F2F2F2"/>
<path d="M108.081 119.066C108.081 119.171 108.039 119.271 107.965 119.345C107.891 119.419 107.79 119.46 107.685 119.46H81.1765C79.7368 119.46 78.356 118.892 77.338 117.88C76.3199 116.868 75.748 115.495 75.748 114.064C75.748 112.632 76.3199 111.26 77.338 110.248C78.356 109.235 79.7368 108.667 81.1765 108.667H107.685C107.79 108.667 107.891 108.708 107.965 108.782C108.039 108.856 108.081 108.956 108.081 109.061C108.081 109.165 108.039 109.265 107.965 109.339C107.891 109.413 107.79 109.455 107.685 109.455H81.1765C79.9477 109.456 78.7695 109.942 77.901 110.806C77.0325 111.67 76.5446 112.842 76.5446 114.064C76.5446 115.285 77.0325 116.457 77.901 117.321C78.7695 118.185 79.9477 118.671 81.1765 118.673H107.685C107.79 118.673 107.891 118.714 107.965 118.788C108.039 118.862 108.081 118.962 108.081 119.066Z" fill="#8E97FD"/>
<path d="M107.447 111.267H79.7104C79.7 111.267 79.6896 111.265 79.6799 111.261C79.6702 111.257 79.6614 111.251 79.654 111.244C79.6466 111.237 79.6407 111.228 79.6367 111.218C79.6327 111.209 79.6306 111.198 79.6306 111.188C79.6306 111.178 79.6327 111.167 79.6367 111.158C79.6407 111.148 79.6466 111.139 79.654 111.132C79.6614 111.125 79.6702 111.119 79.6799 111.115C79.6896 111.111 79.7 111.109 79.7104 111.109H107.447C107.468 111.109 107.488 111.118 107.503 111.132C107.518 111.147 107.526 111.167 107.526 111.188C107.526 111.209 107.518 111.229 107.503 111.243C107.488 111.258 107.468 111.267 107.447 111.267Z" fill="#CCCCCC"/>
<path d="M107.447 113.158H79.7104C79.7 113.158 79.6896 113.156 79.6799 113.152C79.6702 113.148 79.6614 113.142 79.654 113.135C79.6466 113.127 79.6407 113.119 79.6367 113.109C79.6327 113.099 79.6306 113.089 79.6306 113.079C79.6306 113.068 79.6327 113.058 79.6367 113.049C79.6407 113.039 79.6466 113.03 79.654 113.023C79.6614 113.016 79.6702 113.01 79.6799 113.006C79.6896 113.002 79.7 113 79.7104 113H107.447C107.468 113 107.488 113.009 107.503 113.023C107.518 113.038 107.526 113.058 107.526 113.079C107.526 113.1 107.518 113.12 107.503 113.134C107.488 113.149 107.468 113.157 107.447 113.158Z" fill="#CCCCCC"/>
<path d="M107.447 115.048H79.7104C79.7 115.049 79.6896 115.047 79.6799 115.043C79.6702 115.039 79.6614 115.033 79.654 115.026C79.6466 115.018 79.6407 115.01 79.6367 115C79.6327 114.99 79.6306 114.98 79.6306 114.97C79.6306 114.959 79.6327 114.949 79.6367 114.939C79.6407 114.93 79.6466 114.921 79.654 114.914C79.6614 114.906 79.6702 114.901 79.6799 114.897C79.6896 114.893 79.7 114.891 79.7104 114.891H107.447C107.468 114.891 107.488 114.899 107.503 114.914C107.518 114.929 107.526 114.949 107.526 114.97C107.526 114.99 107.518 115.01 107.503 115.025C107.488 115.04 107.468 115.048 107.447 115.048Z" fill="#CCCCCC"/>
<path d="M107.447 116.939H79.7104C79.7 116.939 79.6896 116.937 79.6799 116.933C79.6702 116.93 79.6614 116.924 79.654 116.916C79.6466 116.909 79.6407 116.9 79.6367 116.891C79.6327 116.881 79.6306 116.871 79.6306 116.86C79.6306 116.85 79.6327 116.84 79.6367 116.83C79.6407 116.821 79.6466 116.812 79.654 116.805C79.6614 116.797 79.6702 116.791 79.6799 116.788C79.6896 116.784 79.7 116.782 79.7104 116.782H107.447C107.468 116.782 107.488 116.79 107.503 116.805C107.518 116.82 107.526 116.84 107.526 116.86C107.526 116.881 107.518 116.901 107.503 116.916C107.488 116.931 107.468 116.939 107.447 116.939Z" fill="#CCCCCC"/>
<path d="M102.582 98.1125V108.355H76.7706C76.0791 108.379 75.3898 108.264 74.7438 108.017C74.0979 107.771 73.5084 107.397 73.0107 106.919C72.513 106.441 72.1172 105.869 71.8468 105.236C71.5765 104.602 71.4371 103.921 71.4371 103.234C71.4371 102.546 71.5765 101.865 71.8468 101.232C72.1172 100.598 72.513 100.026 73.0107 99.5478C73.5084 99.0699 74.0979 98.6965 74.7438 98.4499C75.3898 98.2033 76.0791 98.0886 76.7706 98.1125H102.582Z" fill="#F2F2F2"/>
<path d="M103.216 108.276C103.216 108.38 103.174 108.48 103.1 108.554C103.025 108.628 102.924 108.67 102.819 108.67H76.3109C75.598 108.67 74.8921 108.53 74.2335 108.259C73.5749 107.988 72.9764 107.59 72.4724 107.089C71.9683 106.588 71.5684 105.993 71.2956 105.338C71.0228 104.683 70.8824 103.982 70.8824 103.273C70.8824 102.564 71.0228 101.862 71.2956 101.208C71.5684 100.553 71.9683 99.958 72.4724 99.4568C72.9764 98.9557 73.5749 98.5582 74.2335 98.287C74.8921 98.0157 75.598 97.8762 76.3109 97.8762H102.819C102.924 97.8762 103.025 97.9177 103.1 97.9915C103.174 98.0654 103.216 98.1656 103.216 98.2701C103.216 98.3746 103.174 98.4748 103.1 98.5486C103.025 98.6225 102.924 98.664 102.819 98.664H76.3109C75.0821 98.6651 73.9039 99.1512 73.0354 100.015C72.1669 100.88 71.679 102.051 71.679 103.273C71.679 104.495 72.1669 105.666 73.0354 106.531C73.9039 107.395 75.0821 107.881 76.3109 107.882H102.819C102.924 107.882 103.025 107.923 103.1 107.997C103.174 108.071 103.216 108.171 103.216 108.276Z" fill="#3F3D56"/>
<path d="M102.582 100.476H74.8447C74.8343 100.476 74.8239 100.474 74.8143 100.47C74.8046 100.466 74.7958 100.46 74.7884 100.453C74.7809 100.446 74.7751 100.437 74.771 100.428C74.767 100.418 74.765 100.408 74.765 100.397C74.765 100.387 74.767 100.377 74.771 100.367C74.7751 100.357 74.7809 100.349 74.7884 100.341C74.7958 100.334 74.8046 100.328 74.8143 100.324C74.8239 100.32 74.8343 100.318 74.8447 100.318H102.582C102.603 100.319 102.623 100.327 102.637 100.342C102.652 100.357 102.66 100.376 102.66 100.397C102.66 100.418 102.652 100.438 102.637 100.453C102.623 100.468 102.603 100.476 102.582 100.476Z" fill="#CCCCCC"/>
<path d="M102.582 102.367H74.8447C74.8343 102.367 74.8239 102.365 74.8143 102.361C74.8046 102.357 74.7958 102.351 74.7884 102.344C74.7809 102.337 74.7751 102.328 74.771 102.318C74.767 102.309 74.765 102.299 74.765 102.288C74.765 102.278 74.767 102.267 74.771 102.258C74.7751 102.248 74.7809 102.24 74.7884 102.232C74.7958 102.225 74.8046 102.219 74.8143 102.215C74.8239 102.211 74.8343 102.209 74.8447 102.209H102.582C102.603 102.209 102.623 102.218 102.637 102.233C102.652 102.247 102.66 102.267 102.66 102.288C102.66 102.309 102.652 102.329 102.637 102.344C102.623 102.358 102.603 102.367 102.582 102.367Z" fill="#CCCCCC"/>
<path d="M102.582 104.258H74.8447C74.8343 104.258 74.8239 104.256 74.8143 104.252C74.8046 104.248 74.7958 104.242 74.7884 104.235C74.7809 104.228 74.7751 104.219 74.771 104.209C74.767 104.2 74.765 104.189 74.765 104.179C74.765 104.169 74.767 104.158 74.771 104.149C74.7751 104.139 74.7809 104.13 74.7884 104.123C74.7958 104.116 74.8046 104.11 74.8143 104.106C74.8239 104.102 74.8343 104.1 74.8447 104.1H102.582C102.603 104.1 102.623 104.109 102.637 104.123C102.652 104.138 102.66 104.158 102.66 104.179C102.66 104.2 102.652 104.22 102.637 104.234C102.623 104.249 102.603 104.258 102.582 104.258Z" fill="#CCCCCC"/>
<path d="M102.582 106.149H74.8447C74.8343 106.149 74.8239 106.147 74.8143 106.143C74.8046 106.139 74.7958 106.133 74.7884 106.126C74.7809 106.118 74.7751 106.11 74.771 106.1C74.767 106.091 74.765 106.08 74.765 106.07C74.765 106.059 74.767 106.049 74.771 106.04C74.7751 106.03 74.7809 106.021 74.7884 106.014C74.7958 106.007 74.8046 106.001 74.8143 105.997C74.8239 105.993 74.8343 105.991 74.8447 105.991H102.582C102.603 105.991 102.623 106 102.637 106.014C102.652 106.029 102.66 106.049 102.66 106.07C102.66 106.091 102.652 106.111 102.637 106.125C102.623 106.14 102.603 106.148 102.582 106.149Z" fill="#CCCCCC"/>
<path d="M132.608 155.55V146.62C132.608 146.225 132.45 145.847 132.169 145.568C131.888 145.289 131.508 145.132 131.111 145.132H97.0513C96.6543 145.132 96.2735 145.289 95.9927 145.568C95.7119 145.847 95.5542 146.225 95.5542 146.62V155.55H132.608Z" fill="#CCCCCC"/>
<path d="M132.608 158.899H95.5542V170.434H132.608V158.899Z" fill="#CCCCCC"/>
<path d="M95.5542 173.783V182.713C95.5542 183.108 95.7119 183.486 95.9927 183.765C96.2735 184.045 96.6543 184.201 97.0513 184.201H131.111C131.508 184.201 131.888 184.045 132.169 183.765C132.45 183.486 132.608 183.108 132.608 182.713V173.783H95.5542Z" fill="#CCCCCC"/>
<path d="M113.894 151.829C114.514 151.829 115.017 151.33 115.017 150.713C115.017 150.097 114.514 149.597 113.894 149.597C113.274 149.597 112.771 150.097 112.771 150.713C112.771 151.33 113.274 151.829 113.894 151.829Z" fill="white"/>
<path d="M113.894 166.713C114.514 166.713 115.017 166.213 115.017 165.597C115.017 164.98 114.514 164.481 113.894 164.481C113.274 164.481 112.771 164.98 112.771 165.597C112.771 166.213 113.274 166.713 113.894 166.713Z" fill="white"/>
<path d="M113.954 181.282C114.574 181.282 115.077 180.782 115.077 180.165C115.077 179.549 114.574 179.049 113.954 179.049C113.334 179.049 112.831 179.549 112.831 180.165C112.831 180.782 113.334 181.282 113.954 181.282Z" fill="white"/>
<path d="M128.407 134.95V145.192H102.596C101.904 145.216 101.215 145.101 100.569 144.854C99.923 144.608 99.3336 144.234 98.8358 143.756C98.3381 143.279 97.9423 142.706 97.672 142.073C97.4016 141.439 97.2623 140.759 97.2623 140.071C97.2623 139.383 97.4016 138.702 97.672 138.069C97.9423 137.435 98.3381 136.863 98.8358 136.385C99.3336 135.907 99.923 135.534 100.569 135.287C101.215 135.04 101.904 134.926 102.596 134.95H128.407Z" fill="#F2F2F2"/>
<path d="M129.041 145.113C129.041 145.217 128.999 145.318 128.925 145.391C128.85 145.465 128.75 145.507 128.644 145.507H102.136C101.423 145.507 100.716 145.368 100.057 145.097C99.3981 144.826 98.7991 144.429 98.2946 143.928C97.79 143.427 97.3897 142.831 97.1166 142.176C96.8436 141.521 96.703 140.819 96.703 140.11C96.703 139.401 96.8436 138.699 97.1166 138.044C97.3897 137.389 97.79 136.794 98.2946 136.292C98.7991 135.791 99.3981 135.394 100.057 135.123C100.716 134.852 101.423 134.713 102.136 134.713H128.644C128.75 134.713 128.85 134.755 128.925 134.829C128.999 134.903 129.041 135.003 129.041 135.107C129.041 135.212 128.999 135.312 128.925 135.386C128.85 135.46 128.75 135.501 128.644 135.501H102.136C100.907 135.502 99.7291 135.988 98.8605 136.852C97.992 137.717 97.5041 138.888 97.5041 140.11C97.5041 141.332 97.992 142.503 98.8605 143.368C99.7291 144.232 100.907 144.718 102.136 144.719H128.644C128.75 144.719 128.85 144.761 128.925 144.834C128.999 144.908 129.041 145.008 129.041 145.113Z" fill="#3F3D56"/>
<path d="M128.407 137.313H100.67C100.659 137.313 100.649 137.311 100.639 137.307C100.63 137.303 100.621 137.298 100.614 137.29C100.606 137.283 100.6 137.274 100.596 137.265C100.592 137.255 100.59 137.245 100.59 137.234C100.59 137.224 100.592 137.214 100.596 137.204C100.6 137.194 100.606 137.186 100.614 137.178C100.621 137.171 100.63 137.165 100.639 137.161C100.649 137.157 100.659 137.156 100.67 137.156H128.407C128.428 137.156 128.448 137.164 128.462 137.179C128.477 137.194 128.485 137.214 128.485 137.234C128.485 137.255 128.477 137.275 128.462 137.29C128.448 137.305 128.428 137.313 128.407 137.313Z" fill="#CCCCCC"/>
<path d="M128.407 139.204H100.67C100.659 139.204 100.649 139.202 100.639 139.198C100.63 139.194 100.621 139.188 100.614 139.181C100.606 139.174 100.6 139.165 100.596 139.156C100.592 139.146 100.59 139.136 100.59 139.125C100.59 139.115 100.592 139.105 100.596 139.095C100.6 139.085 100.606 139.077 100.614 139.069C100.621 139.062 100.63 139.056 100.639 139.052C100.649 139.048 100.659 139.046 100.67 139.046H128.407C128.428 139.047 128.448 139.055 128.462 139.07C128.477 139.084 128.485 139.104 128.485 139.125C128.485 139.146 128.477 139.166 128.462 139.181C128.448 139.196 128.428 139.204 128.407 139.204Z" fill="#CCCCCC"/>
<path d="M128.407 141.095H100.67C100.659 141.095 100.649 141.093 100.639 141.089C100.63 141.085 100.621 141.079 100.614 141.072C100.606 141.065 100.6 141.056 100.596 141.046C100.592 141.037 100.59 141.026 100.59 141.016C100.59 141.006 100.592 140.995 100.596 140.986C100.6 140.976 100.606 140.967 100.614 140.96C100.621 140.953 100.63 140.947 100.639 140.943C100.649 140.939 100.659 140.937 100.67 140.937H128.407C128.428 140.937 128.448 140.946 128.462 140.961C128.477 140.975 128.485 140.995 128.485 141.016C128.485 141.037 128.477 141.057 128.462 141.072C128.448 141.086 128.428 141.095 128.407 141.095Z" fill="#CCCCCC"/>
<path d="M128.407 142.986H100.67C100.659 142.986 100.649 142.984 100.639 142.98C100.63 142.976 100.621 142.97 100.614 142.963C100.606 142.956 100.6 142.947 100.596 142.937C100.592 142.928 100.59 142.917 100.59 142.907C100.59 142.897 100.592 142.886 100.596 142.877C100.6 142.867 100.606 142.858 100.614 142.851C100.621 142.844 100.63 142.838 100.639 142.834C100.649 142.83 100.659 142.828 100.67 142.828H128.407C128.428 142.828 128.448 142.837 128.462 142.851C128.477 142.866 128.485 142.886 128.485 142.907C128.485 142.928 128.477 142.948 128.462 142.962C128.448 142.977 128.428 142.986 128.407 142.986Z" fill="#CCCCCC"/>
<path d="M93.6107 68.1008V2.79867C93.6115 2.05667 93.9084 1.34531 94.4361 0.820645C94.9639 0.295977 95.6794 0.000843992 96.4258 0H148.349C149.095 0.000848906 149.811 0.295983 150.338 0.82065C150.866 1.34532 151.163 2.05667 151.164 2.79867V68.1008C151.163 68.8428 150.866 69.5541 150.338 70.0788C149.811 70.6034 149.095 70.8986 148.349 70.8994H96.4258C95.6794 70.8986 94.9639 70.6034 94.4361 70.0788C93.9084 69.5541 93.6115 68.8428 93.6107 68.1008ZM96.4258 0.621926C95.8453 0.622572 95.2887 0.852115 94.8783 1.26019C94.4678 1.66827 94.2369 2.22156 94.2362 2.79867V68.1008C94.2369 68.6779 94.4678 69.2312 94.8783 69.6392C95.2887 70.0473 95.8453 70.2769 96.4258 70.2775H148.349C148.929 70.2768 149.486 70.0473 149.896 69.6392C150.307 69.2312 150.538 68.6779 150.538 68.1008V2.79867C150.538 2.22156 150.307 1.66827 149.896 1.26019C149.486 0.852116 148.929 0.622573 148.349 0.621926H96.4258Z" fill="#E6E6E6"/>
<path d="M125.299 29.9897V16.5812C125.299 16.2102 125.448 15.8545 125.712 15.5921C125.975 15.3298 126.333 15.1822 126.706 15.1818H138.136C138.509 15.1822 138.867 15.3298 139.131 15.5921C139.394 15.8545 139.543 16.2102 139.543 16.5812V29.9897C139.543 30.3607 139.394 30.7164 139.131 30.9788C138.867 31.2411 138.509 31.3887 138.136 31.3891H126.706C126.333 31.3887 125.975 31.2411 125.712 30.9788C125.448 30.7164 125.299 30.3607 125.299 29.9897Z" fill="#8E97FD"/>
<path d="M103.091 36.209V22.8004C103.091 22.4294 103.24 22.0737 103.504 21.8114C103.768 21.5491 104.125 21.4015 104.499 21.4011H115.928C116.301 21.4015 116.659 21.5491 116.923 21.8114C117.187 22.0737 117.335 22.4294 117.335 22.8004V36.209C117.335 36.58 117.187 36.9357 116.923 37.198C116.659 37.4604 116.301 37.6079 115.928 37.6083H104.499C104.125 37.6079 103.768 37.4604 103.504 37.198C103.24 36.9357 103.091 36.58 103.091 36.209Z" fill="#CCCCCC"/>
<path d="M120.92 55.1777V41.7691C120.92 41.3981 121.069 41.0424 121.333 40.7801C121.596 40.5177 121.954 40.3702 122.327 40.3698H133.757C134.13 40.3702 134.488 40.5177 134.752 40.7801C135.015 41.0424 135.164 41.3981 135.164 41.7691V55.1777C135.164 55.5487 135.015 55.9044 134.752 56.1667C134.488 56.4291 134.13 56.5766 133.757 56.577H122.327C121.954 56.5766 121.596 56.4291 121.333 56.1667C121.069 55.9044 120.92 55.5487 120.92 55.1777Z" fill="#FF6584"/>
<path d="M189.221 116.481H177.461C177.349 116.481 177.239 116.506 177.139 116.555L174.171 118.032C174.073 118.074 173.99 118.143 173.932 118.231C173.873 118.319 173.842 118.422 173.842 118.527C173.842 118.633 173.873 118.736 173.932 118.824C173.99 118.912 174.073 118.981 174.171 119.022L177.139 120.499C177.239 120.548 177.349 120.574 177.461 120.574H189.221C189.383 120.583 189.542 120.529 189.664 120.422C189.786 120.315 189.861 120.165 189.872 120.004V117.05C189.861 116.889 189.786 116.739 189.664 116.633C189.542 116.526 189.383 116.471 189.221 116.481Z" fill="#3F3D56"/>
<path d="M189.872 117.05V120.004C189.861 120.165 189.786 120.315 189.664 120.422C189.542 120.529 189.383 120.583 189.221 120.574H186.878V116.481H189.221C189.383 116.471 189.542 116.526 189.664 116.633C189.786 116.739 189.861 116.889 189.872 117.05Z" fill="#8E97FD"/>
<path d="M189.132 94.3784C189.665 94.1499 190.24 94.0359 190.82 94.0437C191.4 94.0516 191.972 94.1813 192.498 94.4242C193.025 94.6671 193.493 95.0178 193.874 95.4533C194.254 95.8888 194.537 96.3993 194.706 96.9513C194.758 97.1263 194.798 97.3047 194.825 97.4853L211.27 105.592L215.076 103.085L219.811 108.505L214 113.197C213.302 113.757 212.44 114.078 211.543 114.112C210.646 114.146 209.762 113.892 209.022 113.388L192.337 101.917C192.213 101.969 192.086 102.015 191.957 102.054C191.402 102.221 190.817 102.27 190.242 102.197C189.666 102.123 189.113 101.93 188.618 101.629C188.123 101.328 187.697 100.927 187.369 100.451C187.041 99.9757 186.817 99.4365 186.713 98.869C186.683 98.7043 186.662 98.5378 186.653 98.3706C186.606 97.533 186.819 96.7015 187.262 95.9877C187.706 95.274 188.358 94.7124 189.132 94.3784Z" fill="#FFB8B8"/>
<path d="M223.384 144.294H205.415C205.415 144.808 186.896 145.224 186.896 145.224C186.605 145.442 186.34 145.692 186.106 145.968C185.403 146.803 185.018 147.857 185.021 148.945V149.689C185.021 150.923 185.514 152.106 186.392 152.978C187.269 153.85 188.459 154.34 189.699 154.341H223.384C224.625 154.339 225.814 153.849 226.691 152.977C227.568 152.105 228.062 150.923 228.063 149.689V148.945C228.061 147.712 227.567 146.53 226.69 145.658C225.813 144.786 224.624 144.296 223.384 144.294Z" fill="#3F3D56"/>
<path d="M203.838 185.412H208.704V154.156H203.838V185.412Z" fill="#3F3D56"/>
<path d="M189.99 185.242C189.99 185.764 197.363 185.444 206.458 185.444C215.553 185.444 222.926 185.764 222.926 185.242C222.926 184.719 215.553 180.574 206.458 180.574C197.363 180.574 189.99 184.719 189.99 185.242Z" fill="#3F3D56"/>
<path d="M194.382 181.578L189.794 181.578L187.611 169.746L194.383 169.747L194.382 181.578Z" fill="#FFB8B8"/>
<path d="M195.552 186L180.757 185.999V185.813C180.757 185.062 180.906 184.317 181.195 183.622C181.485 182.928 181.909 182.297 182.444 181.765C182.978 181.234 183.613 180.812 184.312 180.524C185.011 180.236 185.76 180.088 186.516 180.088H186.516L195.553 180.089L195.552 186Z" fill="#2F2E41"/>
<path d="M187.519 174.241L178.372 153.848C177.608 152.129 177.523 150.187 178.135 148.409C178.747 146.631 180.01 145.148 181.672 144.254L201.514 133.676L210.568 132.91L218.92 132.156L218.98 132.257C219.057 132.386 220.853 135.47 219.639 138.851C218.718 141.416 216.323 143.419 212.521 144.805C203.645 148.041 193.392 150.806 189.396 151.845C189.219 151.889 189.054 151.971 188.911 152.084C188.769 152.197 188.652 152.338 188.568 152.499C188.484 152.658 188.434 152.833 188.422 153.012C188.409 153.192 188.434 153.372 188.494 153.541L196.993 172.523C197.082 172.764 197.114 173.021 197.086 173.276C197.059 173.531 196.973 173.777 196.836 173.993C196.698 174.21 196.512 174.393 196.292 174.527C196.072 174.661 195.824 174.743 195.567 174.766L189.217 175.226C189.163 175.231 189.11 175.234 189.056 175.234C188.731 175.234 188.413 175.14 188.14 174.964C187.867 174.788 187.652 174.537 187.519 174.241Z" fill="#2F2E41"/>
<path d="M196.628 181.578L192.039 181.578L189.856 169.746L196.629 169.747L196.628 181.578Z" fill="#FFB8B8"/>
<path d="M197.798 186L183.003 185.999V185.813C183.003 185.062 183.152 184.317 183.441 183.622C183.73 182.928 184.155 182.297 184.689 181.765C185.224 181.234 185.859 180.812 186.558 180.524C187.256 180.236 188.005 180.088 188.761 180.088H188.762L197.798 180.089L197.798 186Z" fill="#2F2E41"/>
<path d="M190.139 175.358L180.992 154.964C180.228 153.245 180.143 151.303 180.755 149.525C181.367 147.748 182.63 146.264 184.292 145.37L204.134 134.792L213.188 134.027L221.54 133.272L221.6 133.373C221.677 133.503 223.473 136.586 222.259 139.967C221.338 142.532 218.943 144.535 215.141 145.922C206.265 149.157 196.012 151.922 192.016 152.961C191.839 153.006 191.674 153.087 191.531 153.2C191.389 153.313 191.272 153.455 191.188 153.616C191.104 153.775 191.054 153.949 191.042 154.129C191.029 154.308 191.054 154.488 191.114 154.657L199.613 173.639C199.702 173.88 199.734 174.138 199.706 174.393C199.679 174.648 199.593 174.893 199.456 175.11C199.318 175.326 199.132 175.509 198.912 175.643C198.692 175.777 198.444 175.859 198.187 175.883L191.837 176.342C191.783 176.347 191.729 176.35 191.676 176.35C191.351 176.35 191.033 176.256 190.76 176.08C190.487 175.904 190.272 175.653 190.139 175.358Z" fill="#2F2E41"/>
<path d="M185.58 113.058C181.736 107.975 178.697 102.337 176.569 96.3392C176.445 95.9805 176.454 95.5899 176.594 95.237C176.733 94.8841 176.993 94.5917 177.329 94.412L190.483 87.4049C190.696 87.2907 190.932 87.2263 191.174 87.2165C191.416 87.2068 191.656 87.252 191.878 87.3487C192.103 87.4461 192.303 87.5934 192.463 87.7793C192.623 87.9653 192.738 88.185 192.799 88.4218C194.33 94.2009 197.208 99.5407 201.2 104.009C201.364 104.191 201.485 104.408 201.552 104.643C201.619 104.878 201.632 105.125 201.588 105.366C201.547 105.603 201.451 105.827 201.309 106.022C201.167 106.216 200.982 106.376 200.769 106.489L187.615 113.496C187.278 113.674 186.889 113.728 186.516 113.648C186.144 113.568 185.812 113.359 185.58 113.058Z" fill="#CCCCCC"/>
<path d="M186.477 112.387C186.548 112.475 186.647 112.536 186.758 112.558C186.869 112.581 186.984 112.565 187.084 112.512L200.239 105.505C200.302 105.472 200.358 105.424 200.4 105.366C200.443 105.309 200.471 105.242 200.483 105.171C200.497 105.096 200.493 105.02 200.472 104.947C200.45 104.874 200.413 104.807 200.361 104.751C196.252 100.151 193.289 94.6543 191.713 88.7049C191.695 88.6314 191.659 88.5631 191.61 88.5053C191.561 88.4475 191.499 88.4018 191.429 88.3719C191.363 88.3426 191.291 88.3289 191.219 88.3318C191.147 88.3348 191.077 88.3543 191.013 88.3889L177.86 95.396C177.76 95.4495 177.682 95.5359 177.64 95.6404C177.598 95.7448 177.593 95.8607 177.628 95.9679C179.718 101.858 182.702 107.395 186.477 112.387Z" fill="white"/>
<path d="M229.28 111.189L218.978 115.081L216.463 108.135C216.129 107.213 216.133 106.203 216.476 105.283C216.818 104.364 217.477 103.595 218.335 103.112C219.202 102.623 220.217 102.459 221.196 102.649C222.175 102.839 223.054 103.37 223.673 104.148L229.28 111.189Z" fill="#8E97FD"/>
<path d="M203.076 138.709C202.86 138.556 202.678 138.36 202.544 138.132C202.409 137.904 202.325 137.651 202.297 137.388C200.977 125.143 201.896 115.56 205.106 108.092C205.671 106.804 206.523 105.66 207.597 104.746C208.671 103.832 209.939 103.172 211.307 102.815L219.634 102.398L219.677 102.418C221.556 103.333 223.089 104.826 224.047 106.675C225.006 108.524 225.34 110.631 224.999 112.684C222.321 119.703 220.078 127.01 221.788 132.906C221.86 133.152 221.881 133.41 221.85 133.665C221.819 133.92 221.736 134.165 221.607 134.388C221.482 134.602 221.314 134.79 221.114 134.937C220.913 135.085 220.684 135.19 220.441 135.247L204.58 138.998C204.323 139.059 204.056 139.064 203.797 139.014C203.538 138.965 203.292 138.86 203.076 138.709Z" fill="#8E97FD"/>
<path d="M216.855 99.3054C221.932 99.3054 226.048 95.2138 226.048 90.1665C226.048 85.1192 221.932 81.0275 216.855 81.0275C211.778 81.0275 207.662 85.1192 207.662 90.1665C207.662 95.2138 211.778 99.3054 216.855 99.3054Z" fill="#FFB8B8"/>
<path d="M191.347 97.4048L184.183 100.549C183.91 100.668 183.601 100.675 183.324 100.568C183.046 100.461 182.823 100.249 182.702 99.9784L182.525 99.5793C182.405 99.3084 182.398 99.0013 182.506 98.7254C182.613 98.4494 182.826 98.2271 183.099 98.1073L190.263 94.9633C190.535 94.8441 190.844 94.8372 191.122 94.9441C191.399 95.0511 191.623 95.2631 191.743 95.5337L191.921 95.9328C192.041 96.2037 192.047 96.5108 191.94 96.7867C191.832 97.0627 191.619 97.285 191.347 97.4048Z" fill="#CCCCCC"/>
<path d="M193.967 102.242L186.803 105.386C186.53 105.505 186.221 105.512 185.944 105.405C185.666 105.298 185.442 105.086 185.322 104.816L185.145 104.416C185.025 104.146 185.018 103.839 185.125 103.563C185.233 103.287 185.446 103.064 185.719 102.945L192.883 99.8005C193.155 99.6813 193.464 99.6744 193.742 99.7813C194.019 99.8883 194.243 100.1 194.363 100.371L194.541 100.77C194.66 101.041 194.667 101.348 194.56 101.624C194.452 101.9 194.239 102.122 193.967 102.242Z" fill="#CCCCCC"/>
<path d="M199.492 121.136L183.52 108.609C183.393 108.653 183.263 108.691 183.132 108.723C182.568 108.854 181.983 108.865 181.414 108.757C180.846 108.649 180.307 108.422 179.832 108.093C179.354 107.764 178.952 107.337 178.653 106.84C178.354 106.344 178.166 105.79 178.1 105.216C177.993 104.297 178.201 103.37 178.691 102.584C179.181 101.798 179.923 101.199 180.798 100.885C181.344 100.691 181.926 100.613 182.504 100.657C183.082 100.701 183.645 100.866 184.155 101.141C184.664 101.417 185.11 101.796 185.462 102.254C185.814 102.713 186.065 103.24 186.198 103.801C186.239 103.979 186.267 104.16 186.283 104.342L202.183 113.461L206.14 111.196L210.523 116.901L204.38 121.254C203.66 121.76 202.796 122.021 201.916 122C201.035 121.978 200.185 121.675 199.492 121.136Z" fill="#FFB8B8"/>
<path d="M212.472 118.678L203.359 112.517L207.642 106.486C208.21 105.686 209.046 105.11 209.999 104.863C210.953 104.615 211.965 104.71 212.855 105.132C213.755 105.559 214.472 106.291 214.877 107.198C215.282 108.104 215.347 109.124 215.061 110.074L212.472 118.678Z" fill="#8E97FD"/>
<path d="M213.485 88.8053C211.122 90.4129 208.02 92.0654 205.606 90.3535C204.022 89.2293 203.523 87.1477 204.165 85.321C205.321 82.0359 208.495 80.5897 211.531 79.4811C215.478 78.04 219.775 76.8935 223.849 77.9256C227.923 78.9577 231.524 82.8792 230.788 86.9946C230.197 90.304 227.057 93.0578 227.503 96.3897C227.951 99.7431 231.745 101.508 235.094 102.107C238.443 102.707 242.19 102.899 244.597 105.291C247.667 108.342 246.9 113.794 244.011 117.015C241.122 120.236 236.763 121.696 232.538 122.689C226.941 124.004 220.887 124.695 215.572 122.512C210.256 120.33 206.119 114.455 207.659 108.946C208.309 106.619 209.842 104.652 211.322 102.738C212.803 100.823 214.303 98.8213 214.868 96.4723C215.339 94.5148 214.99 92.2421 213.684 90.7738C213.447 90.5168 213.297 90.1916 213.257 89.8448C213.217 89.4981 213.289 89.1477 213.462 88.844L213.485 88.8053Z" fill="#2F2E41"/>
<path d="M40.8233 133.208C38.4545 134.036 35.9112 134.243 33.4384 133.81C30.9657 133.377 28.6467 132.318 26.7051 130.736C21.7601 126.61 20.2097 119.812 18.9482 113.517C17.7045 107.311 16.4607 101.105 15.217 94.8994L23.0288 100.247C28.6465 104.093 34.3909 108.061 38.2806 113.631C42.1703 119.202 43.8682 126.805 40.7429 132.833" fill="#E6E6E6"/>
<path d="M40.1555 155.749C40.9461 150.023 41.7592 144.224 41.2045 138.437C40.712 133.298 39.1348 128.278 35.9239 124.162C34.2196 121.982 32.1457 120.114 29.7956 118.642C29.1827 118.257 28.6187 119.223 29.2289 119.605C33.2953 122.16 36.4405 125.933 38.2111 130.38C40.1666 135.325 40.4807 140.715 40.1437 145.968C39.9399 149.145 39.508 152.3 39.0727 155.452C39.0384 155.595 39.0598 155.745 39.1326 155.872C39.2054 156 39.3242 156.095 39.4649 156.139C39.6084 156.177 39.7614 156.158 39.8907 156.085C40.02 156.012 40.1151 155.891 40.1555 155.749H40.1555Z" fill="#F2F2F2"/>
<path d="M32.54 145.618C31.5241 147.153 30.1277 148.402 28.4852 149.244C26.8428 150.087 25.0097 150.495 23.1626 150.429C18.4156 150.205 14.4581 146.911 10.8956 143.784L0.358459 134.535L7.3323 134.203C12.3475 133.965 17.492 133.742 22.2688 135.28C27.0456 136.817 31.451 140.518 32.3244 145.433" fill="#E6E6E6"/>
<path d="M42.3899 159.04C38.5844 152.346 34.1703 144.906 26.283 142.528C24.09 141.869 21.7904 141.633 19.5082 141.833C18.7889 141.894 18.9685 142.997 19.6865 142.935C23.512 142.619 27.3301 143.623 30.4981 145.779C33.5465 147.842 35.9201 150.709 37.929 153.751C39.1596 155.614 40.2618 157.556 41.3643 159.495C41.7166 160.115 42.7464 159.667 42.3899 159.04Z" fill="#F2F2F2"/>
<path d="M48.4876 166.087C48.3594 164.61 47.8259 163.196 46.9454 161.999C46.0648 160.803 44.8709 159.869 43.4937 159.301V155.431H36.9645V159.423C35.655 160.019 34.5281 160.95 33.6986 162.121C32.8691 163.292 32.3666 164.66 32.2425 166.087L30.7072 183.829H50.0229L48.4876 166.087Z" fill="#F2F2F2"/>
</g>
<defs>
<clipPath id="clip0">
<rect width="259" height="186" fill="white"/>
</clipPath>
</defs>
</svg>
