<svg width="50" height="17" viewBox="0 0 50 17" fill="none" xmlns="http://www.w3.org/2000/svg">
<path d="M5.01172 16.2051C4.02865 16.2051 3.27018 15.9349 2.73633 15.3945C2.20898 14.8542 1.94531 13.998 1.94531 12.8262V7.43555H0.490234V5.43359H1.94531V2.8457H4.78711V5.43359H6.73047V7.43555H4.78711V12.8164C4.78711 13.2266 4.87174 13.5195 5.04102 13.6953C5.2168 13.8711 5.45443 13.959 5.75391 13.959C5.91016 13.959 6.07943 13.9492 6.26172 13.9297C6.44401 13.9036 6.60026 13.8776 6.73047 13.8516L6.97461 15.9121C6.68815 15.9967 6.3724 16.0651 6.02734 16.1172C5.68229 16.1758 5.34375 16.2051 5.01172 16.2051ZM8.26367 16V14.291L9.63086 13.998V7.44531L8.11719 7.15234V5.43359H12.2871L12.3945 6.74219L12.4141 6.97656C12.9349 5.81771 13.7161 5.23828 14.7578 5.23828C14.9271 5.23828 15.1094 5.2513 15.3047 5.27734C15.5065 5.30339 15.6888 5.34245 15.8516 5.39453L15.5488 8.02148L14.1328 7.94336C13.7292 7.92383 13.4004 7.99219 13.1465 8.14844C12.8991 8.30469 12.6777 8.5293 12.4824 8.82227V13.998L13.8496 14.291V16H8.26367ZM16.75 16V14.291L18.127 13.998V7.44531L16.6035 7.15234V5.43359H20.9785V13.998L22.3457 14.291V16H16.75ZM18.0293 3.19727V0.765625H20.9785V3.19727H18.0293ZM29.4941 16.2051C28.8366 16.2051 28.2767 16.0781 27.8145 15.8242C27.3522 15.5638 26.9648 15.1895 26.6523 14.7012L26.4473 16H23.9863V2.77734L22.4727 2.48438V0.765625H26.8281V6.55664C27.1341 6.13346 27.5085 5.80794 27.9512 5.58008C28.4004 5.35221 28.9212 5.23828 29.5137 5.23828C30.7962 5.23828 31.7826 5.74609 32.4727 6.76172C33.1693 7.77083 33.5176 9.11849 33.5176 10.8047V11.0098C33.5176 12.5853 33.1693 13.8451 32.4727 14.7891C31.776 15.7331 30.7832 16.2051 29.4941 16.2051ZM28.625 13.9883C29.3542 13.9883 29.8783 13.7311 30.1973 13.2168C30.5163 12.696 30.6758 11.9603 30.6758 11.0098V10.8047C30.6758 9.77604 30.513 8.96224 30.1875 8.36328C29.8685 7.75781 29.3574 7.45508 28.6543 7.45508C28.2246 7.45508 27.8568 7.55599 27.5508 7.75781C27.2448 7.95964 27.0039 8.23307 26.8281 8.57812V12.9922C27.2253 13.6562 27.8242 13.9883 28.625 13.9883ZM40.0215 16.2051C38.9733 16.2051 38.0749 15.9772 37.3262 15.5215C36.584 15.0658 36.0143 14.4342 35.6172 13.627C35.2201 12.8132 35.0215 11.8789 35.0215 10.8242V10.6191C35.0215 9.57096 35.2201 8.64323 35.6172 7.83594C36.0143 7.02214 36.584 6.38737 37.3262 5.93164C38.0749 5.4694 38.9668 5.23828 40.002 5.23828C41.0436 5.23828 41.9355 5.46615 42.6777 5.92188C43.4264 6.3776 43.9993 7.01237 44.3965 7.82617C44.7936 8.63346 44.9922 9.56445 44.9922 10.6191V10.8242C44.9922 11.8789 44.7936 12.8132 44.3965 13.627C43.9993 14.4342 43.4297 15.0658 42.6875 15.5215C41.9453 15.9772 41.0566 16.2051 40.0215 16.2051ZM40.0215 14.0176C40.7572 14.0176 41.2943 13.7246 41.6328 13.1387C41.9779 12.5527 42.1504 11.7812 42.1504 10.8242V10.6191C42.1504 9.68164 41.9779 8.91667 41.6328 8.32422C41.2878 7.73177 40.7441 7.43555 40.002 7.43555C39.2598 7.43555 38.7194 7.73177 38.3809 8.32422C38.0423 8.91667 37.873 9.68164 37.873 10.6191V10.8242C37.873 11.7878 38.0423 12.5625 38.3809 13.1484C38.7194 13.7279 39.2663 14.0176 40.0215 14.0176ZM46.916 16V13.5H49.7578V16H46.916Z" fill="#FA6E5A"/>
</svg>
