<svg width="129" height="122" viewBox="0 0 129 122" fill="none" xmlns="http://www.w3.org/2000/svg">
<rect x="0.481323" y="0.517456" width="128.111" height="121.26" rx="10" fill="#7583CA"/>
<path d="M20.4834 80L19.5518 76.9414H14.8672L13.9355 80H11L15.5352 67.0977H18.8662L23.4189 80H20.4834ZM18.9014 74.6562C18.04 71.8848 17.5537 70.3174 17.4424 69.9541C17.3369 69.5908 17.2607 69.3037 17.2139 69.0928C17.0205 69.8428 16.4668 71.6973 15.5527 74.6562H18.9014ZM33.9043 80H31.2236V74.2607C31.2236 73.5518 31.0977 73.0215 30.8457 72.6699C30.5938 72.3125 30.1924 72.1338 29.6416 72.1338C28.8916 72.1338 28.3496 72.3857 28.0156 72.8896C27.6816 73.3877 27.5146 74.2168 27.5146 75.377V80H24.834V70.1738H26.8818L27.2422 71.4307H27.3916C27.6904 70.9561 28.1006 70.5986 28.6221 70.3584C29.1494 70.1123 29.7471 69.9893 30.415 69.9893C31.5576 69.9893 32.4248 70.2998 33.0166 70.9209C33.6084 71.5361 33.9043 72.4268 33.9043 73.5928V80ZM36.5498 67.6338C36.5498 66.7607 37.0361 66.3242 38.0088 66.3242C38.9814 66.3242 39.4678 66.7607 39.4678 67.6338C39.4678 68.0498 39.3447 68.375 39.0986 68.6094C38.8584 68.8379 38.4951 68.9521 38.0088 68.9521C37.0361 68.9521 36.5498 68.5127 36.5498 67.6338ZM39.3447 80H36.6641V70.1738H39.3447V80ZM50.9639 80H48.2832V74.2607C48.2832 73.5518 48.1631 73.0215 47.9229 72.6699C47.6885 72.3125 47.3164 72.1338 46.8066 72.1338C46.1211 72.1338 45.623 72.3857 45.3125 72.8896C45.002 73.3936 44.8467 74.2227 44.8467 75.377V80H42.166V70.1738H44.2139L44.5742 71.4307H44.7236C44.9873 70.9795 45.3682 70.6279 45.8662 70.376C46.3643 70.1182 46.9355 69.9893 47.5801 69.9893C49.0508 69.9893 50.0469 70.4697 50.5684 71.4307H50.8057C51.0693 70.9736 51.4561 70.6191 51.9658 70.3672C52.4814 70.1152 53.0615 69.9893 53.7061 69.9893C54.8193 69.9893 55.6602 70.2764 56.2285 70.8506C56.8027 71.4189 57.0898 72.333 57.0898 73.5928V80H54.4004V74.2607C54.4004 73.5518 54.2803 73.0215 54.04 72.6699C53.8057 72.3125 53.4336 72.1338 52.9238 72.1338C52.2676 72.1338 51.7754 72.3682 51.4473 72.8369C51.125 73.3057 50.9639 74.0498 50.9639 75.0693V80ZM63.9189 71.8965C63.3506 71.8965 62.9053 72.0781 62.583 72.4414C62.2607 72.7988 62.0762 73.3086 62.0293 73.9707H65.791C65.7793 73.3086 65.6064 72.7988 65.2725 72.4414C64.9385 72.0781 64.4873 71.8965 63.9189 71.8965ZM64.2969 80.1758C62.7148 80.1758 61.4785 79.7393 60.5879 78.8662C59.6973 77.9932 59.252 76.7568 59.252 75.1572C59.252 73.5107 59.6621 72.2393 60.4824 71.3428C61.3086 70.4404 62.4482 69.9893 63.9014 69.9893C65.29 69.9893 66.3711 70.3848 67.1445 71.1758C67.918 71.9668 68.3047 73.0596 68.3047 74.4541V75.7549H61.9678C61.9971 76.5166 62.2227 77.1113 62.6445 77.5391C63.0664 77.9668 63.6582 78.1807 64.4199 78.1807C65.0117 78.1807 65.5713 78.1191 66.0986 77.9961C66.626 77.873 67.1768 77.6768 67.751 77.4072V79.4814C67.2822 79.7158 66.7812 79.8887 66.248 80C65.7148 80.1172 65.0645 80.1758 64.2969 80.1758ZM79.2295 71.8965C78.6611 71.8965 78.2158 72.0781 77.8936 72.4414C77.5713 72.7988 77.3867 73.3086 77.3398 73.9707H81.1016C81.0898 73.3086 80.917 72.7988 80.583 72.4414C80.249 72.0781 79.7979 71.8965 79.2295 71.8965ZM79.6074 80.1758C78.0254 80.1758 76.7891 79.7393 75.8984 78.8662C75.0078 77.9932 74.5625 76.7568 74.5625 75.1572C74.5625 73.5107 74.9727 72.2393 75.793 71.3428C76.6191 70.4404 77.7588 69.9893 79.2119 69.9893C80.6006 69.9893 81.6816 70.3848 82.4551 71.1758C83.2285 71.9668 83.6152 73.0596 83.6152 74.4541V75.7549H77.2783C77.3076 76.5166 77.5332 77.1113 77.9551 77.5391C78.377 77.9668 78.9688 78.1807 79.7305 78.1807C80.3223 78.1807 80.8818 78.1191 81.4092 77.9961C81.9365 77.873 82.4873 77.6768 83.0615 77.4072V79.4814C82.5928 79.7158 82.0918 79.8887 81.5586 80C81.0254 80.1172 80.375 80.1758 79.6074 80.1758ZM21.2041 104H18.5234V98.2607C18.5234 97.5518 18.4033 97.0215 18.1631 96.6699C17.9287 96.3125 17.5566 96.1338 17.0469 96.1338C16.3613 96.1338 15.8633 96.3857 15.5527 96.8896C15.2422 97.3936 15.0869 98.2227 15.0869 99.377V104H12.4062V94.1738H14.4541L14.8145 95.4307H14.9639C15.2275 94.9795 15.6084 94.6279 16.1064 94.376C16.6045 94.1182 17.1758 93.9893 17.8203 93.9893C19.291 93.9893 20.2871 94.4697 20.8086 95.4307H21.0459C21.3096 94.9736 21.6963 94.6191 22.2061 94.3672C22.7217 94.1152 23.3018 93.9893 23.9463 93.9893C25.0596 93.9893 25.9004 94.2764 26.4688 94.8506C27.043 95.4189 27.3301 96.333 27.3301 97.5928V104H24.6406V98.2607C24.6406 97.5518 24.5205 97.0215 24.2803 96.6699C24.0459 96.3125 23.6738 96.1338 23.1641 96.1338C22.5078 96.1338 22.0156 96.3682 21.6875 96.8369C21.3652 97.3057 21.2041 98.0498 21.2041 99.0693V104ZM36.3301 104L35.8115 102.664H35.7412C35.29 103.232 34.8242 103.628 34.3438 103.851C33.8691 104.067 33.248 104.176 32.4805 104.176C31.5371 104.176 30.793 103.906 30.248 103.367C29.709 102.828 29.4395 102.061 29.4395 101.064C29.4395 100.021 29.8027 99.2539 30.5293 98.7617C31.2617 98.2637 32.3633 97.9883 33.834 97.9355L35.5391 97.8828V97.4521C35.5391 96.4561 35.0293 95.958 34.0098 95.958C33.2246 95.958 32.3018 96.1953 31.2412 96.6699L30.3535 94.8594C31.4844 94.2676 32.7383 93.9717 34.1152 93.9717C35.4336 93.9717 36.4443 94.2588 37.1475 94.833C37.8506 95.4072 38.2021 96.2803 38.2021 97.4521V104H36.3301ZM35.5391 99.4473L34.502 99.4824C33.7227 99.5059 33.1426 99.6465 32.7617 99.9043C32.3809 100.162 32.1904 100.555 32.1904 101.082C32.1904 101.838 32.624 102.216 33.4912 102.216C34.1123 102.216 34.6074 102.037 34.9766 101.68C35.3516 101.322 35.5391 100.848 35.5391 100.256V99.4473ZM50.041 104H47.3604V98.2607C47.3604 97.5518 47.2344 97.0215 46.9824 96.6699C46.7305 96.3125 46.3291 96.1338 45.7783 96.1338C45.0283 96.1338 44.4863 96.3857 44.1523 96.8896C43.8184 97.3877 43.6514 98.2168 43.6514 99.377V104H40.9707V94.1738H43.0186L43.3789 95.4307H43.5283C43.8271 94.9561 44.2373 94.5986 44.7588 94.3584C45.2861 94.1123 45.8838 93.9893 46.5518 93.9893C47.6943 93.9893 48.5615 94.2998 49.1533 94.9209C49.7451 95.5361 50.041 96.4268 50.041 97.5928V104ZM61.3525 94.1738V95.5361L59.8145 95.9316C60.0957 96.3711 60.2363 96.8633 60.2363 97.4082C60.2363 98.4629 59.8672 99.2861 59.1289 99.8779C58.3965 100.464 57.377 100.757 56.0703 100.757L55.5869 100.73L55.1914 100.687C54.916 100.897 54.7783 101.132 54.7783 101.39C54.7783 101.776 55.2705 101.97 56.2549 101.97H57.9248C59.0029 101.97 59.8232 102.201 60.3857 102.664C60.9541 103.127 61.2383 103.807 61.2383 104.703C61.2383 105.852 60.7578 106.742 59.7969 107.375C58.8418 108.008 57.4678 108.324 55.6748 108.324C54.3037 108.324 53.2549 108.084 52.5283 107.604C51.8076 107.129 51.4473 106.461 51.4473 105.6C51.4473 105.008 51.6318 104.513 52.001 104.114C52.3701 103.716 52.9121 103.432 53.627 103.262C53.3516 103.145 53.1113 102.954 52.9062 102.69C52.7012 102.421 52.5986 102.137 52.5986 101.838C52.5986 101.463 52.707 101.152 52.9238 100.906C53.1406 100.654 53.4541 100.408 53.8643 100.168C53.3486 99.9453 52.9385 99.5879 52.6338 99.0957C52.335 98.6035 52.1855 98.0234 52.1855 97.3555C52.1855 96.2832 52.5342 95.4541 53.2314 94.8682C53.9287 94.2822 54.9248 93.9893 56.2197 93.9893C56.4951 93.9893 56.8203 94.0156 57.1953 94.0684C57.5762 94.1152 57.8193 94.1504 57.9248 94.1738H61.3525ZM53.7676 105.389C53.7676 105.758 53.9434 106.048 54.2949 106.259C54.6523 106.47 55.1504 106.575 55.7891 106.575C56.75 106.575 57.5029 106.443 58.0479 106.18C58.5928 105.916 58.8652 105.556 58.8652 105.099C58.8652 104.729 58.7041 104.475 58.3818 104.334C58.0596 104.193 57.5615 104.123 56.8877 104.123H55.499C55.0068 104.123 54.5938 104.237 54.2598 104.466C53.9316 104.7 53.7676 105.008 53.7676 105.389ZM54.7432 97.3906C54.7432 97.9238 54.8633 98.3457 55.1035 98.6562C55.3496 98.9668 55.7217 99.1221 56.2197 99.1221C56.7236 99.1221 57.0928 98.9668 57.3271 98.6562C57.5615 98.3457 57.6787 97.9238 57.6787 97.3906C57.6787 96.207 57.1924 95.6152 56.2197 95.6152C55.2354 95.6152 54.7432 96.207 54.7432 97.3906ZM69.2188 104L68.7002 102.664H68.6299C68.1787 103.232 67.7129 103.628 67.2324 103.851C66.7578 104.067 66.1367 104.176 65.3691 104.176C64.4258 104.176 63.6816 103.906 63.1367 103.367C62.5977 102.828 62.3281 102.061 62.3281 101.064C62.3281 100.021 62.6914 99.2539 63.418 98.7617C64.1504 98.2637 65.252 97.9883 66.7227 97.9355L68.4277 97.8828V97.4521C68.4277 96.4561 67.918 95.958 66.8984 95.958C66.1133 95.958 65.1904 96.1953 64.1299 96.6699L63.2422 94.8594C64.373 94.2676 65.627 93.9717 67.0039 93.9717C68.3223 93.9717 69.333 94.2588 70.0361 94.833C70.7393 95.4072 71.0908 96.2803 71.0908 97.4521V104H69.2188ZM68.4277 99.4473L67.3906 99.4824C66.6113 99.5059 66.0312 99.6465 65.6504 99.9043C65.2695 100.162 65.0791 100.555 65.0791 101.082C65.0791 101.838 65.5127 102.216 66.3799 102.216C67.001 102.216 67.4961 102.037 67.8652 101.68C68.2402 101.322 68.4277 100.848 68.4277 100.256V99.4473ZM65.4482 93.0928V92.8555C66.4561 91.6836 67.1445 90.8018 67.5137 90.21H70.5195V90.3945C70.2148 90.6992 69.6934 91.1533 68.9551 91.7568C68.2227 92.3545 67.6484 92.7998 67.2324 93.0928H65.4482Z" fill="#FFECCC"/>
<circle cx="100" cy="41" r="15" fill="white" fill-opacity="0.2"/>
<circle cx="41" cy="41" r="30" fill="white" fill-opacity="0.2"/>
</svg>
