<svg width="129" height="153" viewBox="0 0 129 153" fill="none" xmlns="http://www.w3.org/2000/svg">
<rect x="0.302979" width="128.111" height="152.483" rx="10" fill="#8E97FD"/>
<path d="M19.0752 104.233C18.0498 104.233 17.2559 104.62 16.6934 105.394C16.1309 106.161 15.8496 107.233 15.8496 108.61C15.8496 111.476 16.9248 112.908 19.0752 112.908C19.9775 112.908 21.0703 112.683 22.3535 112.231V114.517C21.2988 114.956 20.1211 115.176 18.8203 115.176C16.9512 115.176 15.5215 114.61 14.5312 113.479C13.541 112.343 13.0459 110.714 13.0459 108.593C13.0459 107.257 13.2891 106.088 13.7754 105.086C14.2617 104.078 14.959 103.308 15.8672 102.774C16.7812 102.235 17.8506 101.966 19.0752 101.966C20.3232 101.966 21.5771 102.268 22.8369 102.871L21.958 105.086C21.4775 104.857 20.9941 104.658 20.5078 104.488C20.0215 104.318 19.5439 104.233 19.0752 104.233ZM31.8457 115L31.4854 113.743H31.3447C31.0576 114.2 30.6504 114.555 30.123 114.807C29.5957 115.053 28.9951 115.176 28.3213 115.176C27.167 115.176 26.2969 114.868 25.7109 114.253C25.125 113.632 24.832 112.741 24.832 111.581V105.174H27.5127V110.913C27.5127 111.622 27.6387 112.155 27.8906 112.513C28.1426 112.864 28.5439 113.04 29.0947 113.04C29.8447 113.04 30.3867 112.791 30.7207 112.293C31.0547 111.789 31.2217 110.957 31.2217 109.797V105.174H33.9023V115H31.8457ZM39.3955 115H36.7148V101.324H39.3955V115ZM46.3564 113.04C46.8252 113.04 47.3877 112.938 48.0439 112.732V114.728C47.376 115.026 46.5557 115.176 45.583 115.176C44.5107 115.176 43.7285 114.906 43.2363 114.367C42.75 113.822 42.5068 113.008 42.5068 111.924V107.187H41.2236V106.053L42.7002 105.156L43.4736 103.082H45.1875V105.174H47.9385V107.187H45.1875V111.924C45.1875 112.305 45.293 112.586 45.5039 112.768C45.7207 112.949 46.0049 113.04 46.3564 113.04ZM57 115L56.6396 113.743H56.499C56.2119 114.2 55.8047 114.555 55.2773 114.807C54.75 115.053 54.1494 115.176 53.4756 115.176C52.3213 115.176 51.4512 114.868 50.8652 114.253C50.2793 113.632 49.9863 112.741 49.9863 111.581V105.174H52.667V110.913C52.667 111.622 52.793 112.155 53.0449 112.513C53.2969 112.864 53.6982 113.04 54.249 113.04C54.999 113.04 55.541 112.791 55.875 112.293C56.209 111.789 56.376 110.957 56.376 109.797V105.174H59.0566V115H57ZM67.3535 104.989C67.7168 104.989 68.0186 105.016 68.2588 105.068L68.0566 107.582C67.8398 107.523 67.5762 107.494 67.2656 107.494C66.4102 107.494 65.7422 107.714 65.2617 108.153C64.7871 108.593 64.5498 109.208 64.5498 109.999V115H61.8691V105.174H63.8994L64.2949 106.826H64.4268C64.7314 106.275 65.1416 105.833 65.6572 105.499C66.1787 105.159 66.7441 104.989 67.3535 104.989ZM76.2832 115L75.7646 113.664H75.6943C75.2432 114.232 74.7773 114.628 74.2969 114.851C73.8223 115.067 73.2012 115.176 72.4336 115.176C71.4902 115.176 70.7461 114.906 70.2012 114.367C69.6621 113.828 69.3926 113.061 69.3926 112.064C69.3926 111.021 69.7559 110.254 70.4824 109.762C71.2148 109.264 72.3164 108.988 73.7871 108.936L75.4922 108.883V108.452C75.4922 107.456 74.9824 106.958 73.9629 106.958C73.1777 106.958 72.2549 107.195 71.1943 107.67L70.3066 105.859C71.4375 105.268 72.6914 104.972 74.0684 104.972C75.3867 104.972 76.3975 105.259 77.1006 105.833C77.8037 106.407 78.1553 107.28 78.1553 108.452V115H76.2832ZM75.4922 110.447L74.4551 110.482C73.6758 110.506 73.0957 110.646 72.7148 110.904C72.334 111.162 72.1436 111.555 72.1436 112.082C72.1436 112.838 72.5771 113.216 73.4443 113.216C74.0654 113.216 74.5605 113.037 74.9297 112.68C75.3047 112.322 75.4922 111.848 75.4922 111.256V110.447ZM18.8027 134.176C17.6484 134.176 16.7432 133.757 16.0869 132.919H15.9463C16.04 133.739 16.0869 134.214 16.0869 134.343V138.324H13.4062V124.174H15.5859L15.9639 125.448H16.0869C16.7139 124.476 17.6426 123.989 18.873 123.989C20.0332 123.989 20.9414 124.438 21.5977 125.334C22.2539 126.23 22.582 127.476 22.582 129.069C22.582 130.118 22.4268 131.029 22.1162 131.803C21.8115 132.576 21.375 133.165 20.8066 133.569C20.2383 133.974 19.5703 134.176 18.8027 134.176ZM18.0117 126.134C17.3496 126.134 16.8662 126.339 16.5615 126.749C16.2568 127.153 16.0986 127.824 16.0869 128.762V129.052C16.0869 130.106 16.2422 130.862 16.5527 131.319C16.8691 131.776 17.3672 132.005 18.0469 132.005C19.248 132.005 19.8486 131.015 19.8486 129.034C19.8486 128.067 19.6992 127.344 19.4004 126.863C19.1074 126.377 18.6445 126.134 18.0117 126.134ZM26.9326 129.069C26.9326 130.042 27.0908 130.777 27.4072 131.275C27.7295 131.773 28.251 132.022 28.9717 132.022C29.6865 132.022 30.1992 131.776 30.5098 131.284C30.8262 130.786 30.9844 130.048 30.9844 129.069C30.9844 128.097 30.8262 127.367 30.5098 126.881C30.1934 126.395 29.6748 126.151 28.9541 126.151C28.2393 126.151 27.7236 126.395 27.4072 126.881C27.0908 127.361 26.9326 128.091 26.9326 129.069ZM33.7266 129.069C33.7266 130.669 33.3047 131.92 32.4609 132.822C31.6172 133.725 30.4424 134.176 28.9365 134.176C27.9932 134.176 27.1611 133.971 26.4404 133.561C25.7197 133.145 25.166 132.55 24.7793 131.776C24.3926 131.003 24.1992 130.101 24.1992 129.069C24.1992 127.464 24.6182 126.216 25.4561 125.325C26.2939 124.435 27.4717 123.989 28.9893 123.989C29.9326 123.989 30.7646 124.194 31.4854 124.604C32.2061 125.015 32.7598 125.604 33.1465 126.371C33.5332 127.139 33.7266 128.038 33.7266 129.069ZM41.3379 134.176C40.1836 134.176 39.2783 133.757 38.6221 132.919H38.4814C38.5752 133.739 38.6221 134.214 38.6221 134.343V138.324H35.9414V124.174H38.1211L38.499 125.448H38.6221C39.249 124.476 40.1777 123.989 41.4082 123.989C42.5684 123.989 43.4766 124.438 44.1328 125.334C44.7891 126.23 45.1172 127.476 45.1172 129.069C45.1172 130.118 44.9619 131.029 44.6514 131.803C44.3467 132.576 43.9102 133.165 43.3418 133.569C42.7734 133.974 42.1055 134.176 41.3379 134.176ZM40.5469 126.134C39.8848 126.134 39.4014 126.339 39.0967 126.749C38.792 127.153 38.6338 127.824 38.6221 128.762V129.052C38.6221 130.106 38.7773 130.862 39.0879 131.319C39.4043 131.776 39.9023 132.005 40.582 132.005C41.7832 132.005 42.3838 131.015 42.3838 129.034C42.3838 128.067 42.2344 127.344 41.9355 126.863C41.6426 126.377 41.1797 126.134 40.5469 126.134Z" fill="#FFECCC"/>
<circle cx="42" cy="46" r="30" fill="white" fill-opacity="0.2"/>
<circle cx="102" cy="46" r="15" fill="white" fill-opacity="0.2"/>
</svg>
