<svg width="129" height="122" viewBox="0 0 129 122" fill="none" xmlns="http://www.w3.org/2000/svg">
<rect x="0.481323" y="0.730774" width="128.111" height="121.26" rx="10" fill="#FEB18F"/>
<path d="M15.2979 104H12.6172V91.1504H19.9824V93.3828H15.2979V96.6963H19.6572V98.9199H15.2979V104ZM29.2461 104L28.8857 102.743H28.7451C28.458 103.2 28.0508 103.555 27.5234 103.807C26.9961 104.053 26.3955 104.176 25.7217 104.176C24.5674 104.176 23.6973 103.868 23.1113 103.253C22.5254 102.632 22.2324 101.741 22.2324 100.581V94.1738H24.9131V99.9131C24.9131 100.622 25.0391 101.155 25.291 101.513C25.543 101.864 25.9443 102.04 26.4951 102.04C27.2451 102.04 27.7871 101.791 28.1211 101.293C28.4551 100.789 28.6221 99.957 28.6221 98.7969V94.1738H31.3027V104H29.2461ZM43.1855 104H40.5049V98.2607C40.5049 97.5518 40.3789 97.0215 40.127 96.6699C39.875 96.3125 39.4736 96.1338 38.9229 96.1338C38.1729 96.1338 37.6309 96.3857 37.2969 96.8896C36.9629 97.3877 36.7959 98.2168 36.7959 99.377V104H34.1152V94.1738H36.1631L36.5234 95.4307H36.6729C36.9717 94.9561 37.3818 94.5986 37.9033 94.3584C38.4307 94.1123 39.0283 93.9893 39.6963 93.9893C40.8389 93.9893 41.7061 94.2998 42.2979 94.9209C42.8896 95.5361 43.1855 96.4268 43.1855 97.5928V104ZM48.5205 98.6562L49.6895 97.1621L52.4404 94.1738H55.4639L51.5615 98.4365L55.7012 104H52.6074L49.7773 100.019L48.626 100.941V104H45.9453V90.3242H48.626V96.4238L48.4854 98.6562H48.5205Z" fill="#3F414E"/>
<circle cx="41" cy="41" r="30" fill="white" fill-opacity="0.2"/>
<circle cx="100" cy="46" r="15" fill="white" fill-opacity="0.2"/>
</svg>
