<svg width="130" height="153" viewBox="0 0 130 153" fill="none" xmlns="http://www.w3.org/2000/svg">
<rect x="0.935059" y="0.508179" width="128.111" height="152.483" rx="10" fill="#FFCF86"/>
<path d="M16.2979 135H13.6172V122.15H20.9824V124.383H16.2979V127.696H20.6572V129.92H16.2979V135ZM30.2461 135L29.8857 133.743H29.7451C29.458 134.2 29.0508 134.555 28.5234 134.807C27.9961 135.053 27.3955 135.176 26.7217 135.176C25.5674 135.176 24.6973 134.868 24.1113 134.253C23.5254 133.632 23.2324 132.741 23.2324 131.581V125.174H25.9131V130.913C25.9131 131.622 26.0391 132.155 26.291 132.513C26.543 132.864 26.9443 133.04 27.4951 133.04C28.2451 133.04 28.7871 132.791 29.1211 132.293C29.4551 131.789 29.6221 130.957 29.6221 129.797V125.174H32.3027V135H30.2461ZM39.2549 133.04C39.7236 133.04 40.2861 132.938 40.9424 132.732V134.728C40.2744 135.026 39.4541 135.176 38.4814 135.176C37.4092 135.176 36.627 134.906 36.1348 134.367C35.6484 133.822 35.4053 133.008 35.4053 131.924V127.187H34.1221V126.053L35.5986 125.156L36.3721 123.082H38.0859V125.174H40.8369V127.187H38.0859V131.924C38.0859 132.305 38.1914 132.586 38.4023 132.768C38.6191 132.949 38.9033 133.04 39.2549 133.04ZM47.0068 126.896C46.4385 126.896 45.9932 127.078 45.6709 127.441C45.3486 127.799 45.1641 128.309 45.1172 128.971H48.8789C48.8672 128.309 48.6943 127.799 48.3604 127.441C48.0264 127.078 47.5752 126.896 47.0068 126.896ZM47.3848 135.176C45.8027 135.176 44.5664 134.739 43.6758 133.866C42.7852 132.993 42.3398 131.757 42.3398 130.157C42.3398 128.511 42.75 127.239 43.5703 126.343C44.3965 125.44 45.5361 124.989 46.9893 124.989C48.3779 124.989 49.459 125.385 50.2324 126.176C51.0059 126.967 51.3926 128.06 51.3926 129.454V130.755H45.0557C45.085 131.517 45.3105 132.111 45.7324 132.539C46.1543 132.967 46.7461 133.181 47.5078 133.181C48.0996 133.181 48.6592 133.119 49.1865 132.996C49.7139 132.873 50.2646 132.677 50.8389 132.407V134.481C50.3701 134.716 49.8691 134.889 49.3359 135C48.8027 135.117 48.1523 135.176 47.3848 135.176ZM59.0391 124.989C60.1992 124.989 61.1074 125.443 61.7637 126.352C62.4199 127.254 62.748 128.493 62.748 130.069C62.748 131.692 62.4082 132.949 61.7285 133.84C61.0547 134.73 60.1348 135.176 58.9688 135.176C57.8145 135.176 56.9092 134.757 56.2529 133.919H56.0684L55.6201 135H53.5723V121.324H56.2529V124.506C56.2529 124.91 56.2178 125.558 56.1475 126.448H56.2529C56.8799 125.476 57.8086 124.989 59.0391 124.989ZM58.1777 127.134C57.5156 127.134 57.0322 127.339 56.7275 127.749C56.4229 128.153 56.2646 128.824 56.2529 129.762V130.052C56.2529 131.106 56.4082 131.862 56.7188 132.319C57.0352 132.776 57.5332 133.005 58.2129 133.005C58.7637 133.005 59.2002 132.753 59.5225 132.249C59.8506 131.739 60.0146 131.001 60.0146 130.034C60.0146 129.067 59.8506 128.344 59.5225 127.863C59.1943 127.377 58.7461 127.134 58.1777 127.134ZM67.0986 130.069C67.0986 131.042 67.2568 131.777 67.5732 132.275C67.8955 132.773 68.417 133.022 69.1377 133.022C69.8525 133.022 70.3652 132.776 70.6758 132.284C70.9922 131.786 71.1504 131.048 71.1504 130.069C71.1504 129.097 70.9922 128.367 70.6758 127.881C70.3594 127.395 69.8408 127.151 69.1201 127.151C68.4053 127.151 67.8896 127.395 67.5732 127.881C67.2568 128.361 67.0986 129.091 67.0986 130.069ZM73.8926 130.069C73.8926 131.669 73.4707 132.92 72.627 133.822C71.7832 134.725 70.6084 135.176 69.1025 135.176C68.1592 135.176 67.3271 134.971 66.6064 134.561C65.8857 134.145 65.332 133.55 64.9453 132.776C64.5586 132.003 64.3652 131.101 64.3652 130.069C64.3652 128.464 64.7842 127.216 65.6221 126.325C66.46 125.435 67.6377 124.989 69.1553 124.989C70.0986 124.989 70.9307 125.194 71.6514 125.604C72.3721 126.015 72.9258 126.604 73.3125 127.371C73.6992 128.139 73.8926 129.038 73.8926 130.069ZM78.7881 135H76.1074V121.324H78.7881V135Z" fill="#3F414E"/>
<circle cx="99" cy="47" r="15" fill="white" fill-opacity="0.2"/>
<circle cx="42" cy="46" r="30" fill="white" fill-opacity="0.2"/>
</svg>
