<svg width="129" height="153" viewBox="0 0 129 153" fill="none" xmlns="http://www.w3.org/2000/svg">
<rect x="0.481323" y="0.512878" width="128.111" height="152.483" rx="10" fill="#6CB38E"/>
<path d="M23.1465 130H20.4307V124.454H15.3418V130H12.6172V117.15H15.3418V122.187H20.4307V117.15H23.1465V130ZM26.0732 117.634C26.0732 116.761 26.5596 116.324 27.5322 116.324C28.5049 116.324 28.9912 116.761 28.9912 117.634C28.9912 118.05 28.8682 118.375 28.6221 118.609C28.3818 118.838 28.0186 118.952 27.5322 118.952C26.5596 118.952 26.0732 118.513 26.0732 117.634ZM28.8682 130H26.1875V120.174H28.8682V130ZM37.0859 130.176C35.9316 130.176 35.0264 129.757 34.3701 128.919H34.2295C34.3232 129.739 34.3701 130.214 34.3701 130.343V134.324H31.6895V120.174H33.8691L34.2471 121.448H34.3701C34.9971 120.476 35.9258 119.989 37.1562 119.989C38.3164 119.989 39.2246 120.438 39.8809 121.334C40.5371 122.23 40.8652 123.476 40.8652 125.069C40.8652 126.118 40.71 127.029 40.3994 127.803C40.0947 128.576 39.6582 129.165 39.0898 129.569C38.5215 129.974 37.8535 130.176 37.0859 130.176ZM36.2949 122.134C35.6328 122.134 35.1494 122.339 34.8447 122.749C34.54 123.153 34.3818 123.824 34.3701 124.762V125.052C34.3701 126.106 34.5254 126.862 34.8359 127.319C35.1523 127.776 35.6504 128.005 36.3301 128.005C37.5312 128.005 38.1318 127.015 38.1318 125.034C38.1318 124.067 37.9824 123.344 37.6836 122.863C37.3906 122.377 36.9277 122.134 36.2949 122.134ZM56.8262 130H54.1455V124.261C54.1455 122.843 53.6182 122.134 52.5635 122.134C51.8135 122.134 51.2715 122.389 50.9375 122.898C50.6035 123.408 50.4365 124.234 50.4365 125.377V130H47.7559V116.324H50.4365V119.11C50.4365 119.327 50.416 119.837 50.375 120.64L50.3135 121.431H50.4541C51.0518 120.47 52.001 119.989 53.3018 119.989C54.4561 119.989 55.332 120.3 55.9297 120.921C56.5273 121.542 56.8262 122.433 56.8262 123.593V130ZM61.7217 125.069C61.7217 126.042 61.8799 126.777 62.1963 127.275C62.5186 127.773 63.04 128.022 63.7607 128.022C64.4756 128.022 64.9883 127.776 65.2988 127.284C65.6152 126.786 65.7734 126.048 65.7734 125.069C65.7734 124.097 65.6152 123.367 65.2988 122.881C64.9824 122.395 64.4639 122.151 63.7432 122.151C63.0283 122.151 62.5127 122.395 62.1963 122.881C61.8799 123.361 61.7217 124.091 61.7217 125.069ZM68.5156 125.069C68.5156 126.669 68.0938 127.92 67.25 128.822C66.4062 129.725 65.2314 130.176 63.7256 130.176C62.7822 130.176 61.9502 129.971 61.2295 129.561C60.5088 129.145 59.9551 128.55 59.5684 127.776C59.1816 127.003 58.9883 126.101 58.9883 125.069C58.9883 123.464 59.4072 122.216 60.2451 121.325C61.083 120.435 62.2607 119.989 63.7783 119.989C64.7217 119.989 65.5537 120.194 66.2744 120.604C66.9951 121.015 67.5488 121.604 67.9355 122.371C68.3223 123.139 68.5156 124.038 68.5156 125.069ZM76.127 130.176C74.9727 130.176 74.0674 129.757 73.4111 128.919H73.2705C73.3643 129.739 73.4111 130.214 73.4111 130.343V134.324H70.7305V120.174H72.9102L73.2881 121.448H73.4111C74.0381 120.476 74.9668 119.989 76.1973 119.989C77.3574 119.989 78.2656 120.438 78.9219 121.334C79.5781 122.23 79.9062 123.476 79.9062 125.069C79.9062 126.118 79.751 127.029 79.4404 127.803C79.1357 128.576 78.6992 129.165 78.1309 129.569C77.5625 129.974 76.8945 130.176 76.127 130.176ZM75.3359 122.134C74.6738 122.134 74.1904 122.339 73.8857 122.749C73.5811 123.153 73.4229 123.824 73.4111 124.762V125.052C73.4111 126.106 73.5664 126.862 73.877 127.319C74.1934 127.776 74.6914 128.005 75.3711 128.005C76.5723 128.005 77.1729 127.015 77.1729 125.034C77.1729 124.067 77.0234 123.344 76.7246 122.863C76.4316 122.377 75.9688 122.134 75.3359 122.134Z" fill="#FFECCC"/>
<circle cx="100" cy="48" r="15" fill="white" fill-opacity="0.2"/>
<circle cx="41" cy="48" r="30" fill="white" fill-opacity="0.2"/>
</svg>
