<svg width="130" height="122" viewBox="0 0 130 122" fill="none" xmlns="http://www.w3.org/2000/svg">
<rect x="0.935059" y="0.512878" width="128.111" height="121.26" rx="10" fill="#3F414E"/>
<path d="M25.0166 101H21.5537L15.9639 91.2793H15.8848C15.9961 92.9961 16.0518 94.2207 16.0518 94.9531V101H13.6172V88.1504H17.0537L22.6348 97.7744H22.6963C22.6084 96.1045 22.5645 94.9238 22.5645 94.2324V88.1504H25.0166V101ZM32.1182 92.8965C31.5498 92.8965 31.1045 93.0781 30.7822 93.4414C30.46 93.7988 30.2754 94.3086 30.2285 94.9707H33.9902C33.9785 94.3086 33.8057 93.7988 33.4717 93.4414C33.1377 93.0781 32.6865 92.8965 32.1182 92.8965ZM32.4961 101.176C30.9141 101.176 29.6777 100.739 28.7871 99.8662C27.8965 98.9932 27.4512 97.7568 27.4512 96.1572C27.4512 94.5107 27.8613 93.2393 28.6816 92.3428C29.5078 91.4404 30.6475 90.9893 32.1006 90.9893C33.4893 90.9893 34.5703 91.3848 35.3438 92.1758C36.1172 92.9668 36.5039 94.0596 36.5039 95.4541V96.7549H30.167C30.1963 97.5166 30.4219 98.1113 30.8438 98.5391C31.2656 98.9668 31.8574 99.1807 32.6191 99.1807C33.2109 99.1807 33.7705 99.1191 34.2979 98.9961C34.8252 98.873 35.376 98.6768 35.9502 98.4072V100.481C35.4814 100.716 34.9805 100.889 34.4473 101C33.9141 101.117 33.2637 101.176 32.4961 101.176ZM42.8232 99.04C43.292 99.04 43.8545 98.9375 44.5107 98.7324V100.728C43.8428 101.026 43.0225 101.176 42.0498 101.176C40.9775 101.176 40.1953 100.906 39.7031 100.367C39.2168 99.8223 38.9736 99.0078 38.9736 97.9238V93.1865H37.6904V92.0527L39.167 91.1562L39.9404 89.082H41.6543V91.1738H44.4053V93.1865H41.6543V97.9238C41.6543 98.3047 41.7598 98.5859 41.9707 98.7676C42.1875 98.9492 42.4717 99.04 42.8232 99.04ZM51.9375 93.1865H49.6172V101H46.9365V93.1865H45.46V91.8945L46.9365 91.1738V90.4531C46.9365 89.334 47.2119 88.5166 47.7627 88.001C48.3135 87.4854 49.1953 87.2275 50.4082 87.2275C51.334 87.2275 52.1572 87.3652 52.8779 87.6406L52.1924 89.6094C51.6533 89.4395 51.1553 89.3545 50.6982 89.3545C50.3174 89.3545 50.042 89.4688 49.8721 89.6973C49.7021 89.9199 49.6172 90.207 49.6172 90.5586V91.1738H51.9375V93.1865ZM56.1562 101H53.4756V87.3242H56.1562V101ZM58.8545 88.6338C58.8545 87.7607 59.3408 87.3242 60.3135 87.3242C61.2861 87.3242 61.7725 87.7607 61.7725 88.6338C61.7725 89.0498 61.6494 89.375 61.4033 89.6094C61.1631 89.8379 60.7998 89.9521 60.3135 89.9521C59.3408 89.9521 58.8545 89.5127 58.8545 88.6338ZM61.6494 101H58.9688V91.1738H61.6494V101ZM66.4834 95.9814L63.3193 91.1738H66.3604L68.2676 94.3027L70.1924 91.1738H73.2334L70.0342 95.9814L73.3828 101H70.333L68.2676 97.6338L66.1934 101H63.1523L66.4834 95.9814Z" fill="#EBEAEC"/>
<circle cx="103" cy="48" r="15" fill="white" fill-opacity="0.2"/>
<circle cx="42" cy="46" r="30" fill="white" fill-opacity="0.2"/>
</svg>
