<svg width="130" height="153" viewBox="0 0 130 153" fill="none" xmlns="http://www.w3.org/2000/svg">
<rect x="0.935059" y="0.294861" width="128.111" height="152.483" rx="10" fill="#D9A5B5"/>
<path d="M28.0166 127H24.5537L18.9639 117.279H18.8848C18.9961 118.996 19.0518 120.221 19.0518 120.953V127H16.6172V114.15H20.0537L25.6348 123.774H25.6963C25.6084 122.104 25.5645 120.924 25.5645 120.232V114.15H28.0166V127ZM33.1846 122.069C33.1846 123.042 33.3428 123.777 33.6592 124.275C33.9814 124.773 34.5029 125.022 35.2236 125.022C35.9385 125.022 36.4512 124.776 36.7617 124.284C37.0781 123.786 37.2363 123.048 37.2363 122.069C37.2363 121.097 37.0781 120.367 36.7617 119.881C36.4453 119.395 35.9268 119.151 35.2061 119.151C34.4912 119.151 33.9756 119.395 33.6592 119.881C33.3428 120.361 33.1846 121.091 33.1846 122.069ZM39.9785 122.069C39.9785 123.669 39.5566 124.92 38.7129 125.822C37.8691 126.725 36.6943 127.176 35.1885 127.176C34.2451 127.176 33.4131 126.971 32.6924 126.561C31.9717 126.145 31.418 125.55 31.0312 124.776C30.6445 124.003 30.4512 123.101 30.4512 122.069C30.4512 120.464 30.8701 119.216 31.708 118.325C32.5459 117.435 33.7236 116.989 35.2412 116.989C36.1846 116.989 37.0166 117.194 37.7373 117.604C38.458 118.015 39.0117 118.604 39.3984 119.371C39.7852 120.139 39.9785 121.038 39.9785 122.069ZM44.5312 127L40.7871 117.174H43.5908L45.4893 122.772C45.7002 123.481 45.832 124.152 45.8848 124.785H45.9375C45.9668 124.223 46.0986 123.552 46.333 122.772L48.2227 117.174H51.0264L47.2822 127H44.5312ZM56.5107 118.896C55.9424 118.896 55.4971 119.078 55.1748 119.441C54.8525 119.799 54.668 120.309 54.6211 120.971H58.3828C58.3711 120.309 58.1982 119.799 57.8643 119.441C57.5303 119.078 57.0791 118.896 56.5107 118.896ZM56.8887 127.176C55.3066 127.176 54.0703 126.739 53.1797 125.866C52.2891 124.993 51.8438 123.757 51.8438 122.157C51.8438 120.511 52.2539 119.239 53.0742 118.343C53.9004 117.44 55.04 116.989 56.4932 116.989C57.8818 116.989 58.9629 117.385 59.7363 118.176C60.5098 118.967 60.8965 120.06 60.8965 121.454V122.755H54.5596C54.5889 123.517 54.8145 124.111 55.2363 124.539C55.6582 124.967 56.25 125.181 57.0117 125.181C57.6035 125.181 58.1631 125.119 58.6904 124.996C59.2178 124.873 59.7686 124.677 60.3428 124.407V126.481C59.874 126.716 59.373 126.889 58.8398 127C58.3066 127.117 57.6562 127.176 56.8887 127.176ZM65.7568 127H63.0762V113.324H65.7568V127ZM74.8184 127L74.2998 125.664H74.2295C73.7783 126.232 73.3125 126.628 72.832 126.851C72.3574 127.067 71.7363 127.176 70.9688 127.176C70.0254 127.176 69.2812 126.906 68.7363 126.367C68.1973 125.828 67.9277 125.061 67.9277 124.064C67.9277 123.021 68.291 122.254 69.0176 121.762C69.75 121.264 70.8516 120.988 72.3223 120.936L74.0273 120.883V120.452C74.0273 119.456 73.5176 118.958 72.498 118.958C71.7129 118.958 70.79 119.195 69.7295 119.67L68.8418 117.859C69.9727 117.268 71.2266 116.972 72.6035 116.972C73.9219 116.972 74.9326 117.259 75.6357 117.833C76.3389 118.407 76.6904 119.28 76.6904 120.452V127H74.8184ZM74.0273 122.447L72.9902 122.482C72.2109 122.506 71.6309 122.646 71.25 122.904C70.8691 123.162 70.6787 123.555 70.6787 124.082C70.6787 124.838 71.1123 125.216 71.9795 125.216C72.6006 125.216 73.0957 125.037 73.4648 124.68C73.8398 124.322 74.0273 123.848 74.0273 123.256V122.447Z" fill="#3F414E"/>
<circle cx="103" cy="48" r="15" fill="white" fill-opacity="0.2"/>
<circle cx="44" cy="46" r="30" fill="white" fill-opacity="0.2"/>
</svg>
