<svg width="130" height="122" viewBox="0 0 130 122" fill="none" xmlns="http://www.w3.org/2000/svg">
<rect x="0.935059" y="0.726105" width="128.111" height="121.26" rx="10" fill="#FA6E5A"/>
<path d="M21.2021 100.432C21.2021 101.592 20.7832 102.506 19.9453 103.174C19.1133 103.842 17.9531 104.176 16.4648 104.176C15.0938 104.176 13.8809 103.918 12.8262 103.402V100.871C13.6934 101.258 14.4258 101.53 15.0234 101.688C15.627 101.847 16.1777 101.926 16.6758 101.926C17.2734 101.926 17.7305 101.812 18.0469 101.583C18.3691 101.354 18.5303 101.015 18.5303 100.563C18.5303 100.312 18.46 100.089 18.3193 99.8955C18.1787 99.6963 17.9707 99.5059 17.6953 99.3242C17.4258 99.1426 16.8721 98.8525 16.0342 98.4541C15.249 98.085 14.6602 97.7305 14.2676 97.3906C13.875 97.0508 13.5615 96.6553 13.3271 96.2041C13.0928 95.7529 12.9756 95.2256 12.9756 94.6221C12.9756 93.4854 13.3594 92.5918 14.127 91.9414C14.9004 91.291 15.9668 90.9658 17.3262 90.9658C17.9941 90.9658 18.6299 91.0449 19.2334 91.2031C19.8428 91.3613 20.4785 91.584 21.1406 91.8711L20.2617 93.9893C19.5762 93.708 19.0078 93.5117 18.5566 93.4004C18.1113 93.2891 17.6719 93.2334 17.2383 93.2334C16.7227 93.2334 16.3271 93.3535 16.0518 93.5938C15.7764 93.834 15.6387 94.1475 15.6387 94.5342C15.6387 94.7744 15.6943 94.9854 15.8057 95.167C15.917 95.3428 16.0928 95.5156 16.333 95.6855C16.5791 95.8496 17.1562 96.1484 18.0645 96.582C19.2656 97.1562 20.0889 97.7334 20.5342 98.3135C20.9795 98.8877 21.2021 99.5938 21.2021 100.432ZM27.46 102.04C27.9287 102.04 28.4912 101.938 29.1475 101.732V103.728C28.4795 104.026 27.6592 104.176 26.6865 104.176C25.6143 104.176 24.832 103.906 24.3398 103.367C23.8535 102.822 23.6104 102.008 23.6104 100.924V96.1865H22.3271V95.0527L23.8037 94.1562L24.5771 92.082H26.291V94.1738H29.042V96.1865H26.291V100.924C26.291 101.305 26.3965 101.586 26.6074 101.768C26.8242 101.949 27.1084 102.04 27.46 102.04ZM37.3828 104L36.8643 102.664H36.7939C36.3428 103.232 35.877 103.628 35.3965 103.851C34.9219 104.067 34.3008 104.176 33.5332 104.176C32.5898 104.176 31.8457 103.906 31.3008 103.367C30.7617 102.828 30.4922 102.061 30.4922 101.064C30.4922 100.021 30.8555 99.2539 31.582 98.7617C32.3145 98.2637 33.416 97.9883 34.8867 97.9355L36.5918 97.8828V97.4521C36.5918 96.4561 36.082 95.958 35.0625 95.958C34.2773 95.958 33.3545 96.1953 32.2939 96.6699L31.4062 94.8594C32.5371 94.2676 33.791 93.9717 35.168 93.9717C36.4863 93.9717 37.4971 94.2588 38.2002 94.833C38.9033 95.4072 39.2549 96.2803 39.2549 97.4521V104H37.3828ZM36.5918 99.4473L35.5547 99.4824C34.7754 99.5059 34.1953 99.6465 33.8145 99.9043C33.4336 100.162 33.2432 100.555 33.2432 101.082C33.2432 101.838 33.6768 102.216 34.5439 102.216C35.165 102.216 35.6602 102.037 36.0293 101.68C36.4043 101.322 36.5918 100.848 36.5918 100.256V99.4473ZM47.5078 93.9893C47.8711 93.9893 48.1729 94.0156 48.4131 94.0684L48.2109 96.582C47.9941 96.5234 47.7305 96.4941 47.4199 96.4941C46.5645 96.4941 45.8965 96.7139 45.416 97.1533C44.9414 97.5928 44.7041 98.208 44.7041 98.999V104H42.0234V94.1738H44.0537L44.4492 95.8262H44.5811C44.8857 95.2754 45.2959 94.833 45.8115 94.499C46.333 94.1592 46.8984 93.9893 47.5078 93.9893ZM67.5996 104H64.4971L62.7568 97.25C62.6924 97.0098 62.5811 96.5146 62.4229 95.7646C62.2705 95.0088 62.1826 94.502 62.1592 94.2441C62.124 94.5605 62.0361 95.0703 61.8955 95.7734C61.7549 96.4707 61.6465 96.9688 61.5703 97.2676L59.8389 104H56.7451L53.4668 91.1504H56.1475L57.791 98.1641C58.0781 99.459 58.2861 100.581 58.415 101.53C58.4502 101.196 58.5293 100.681 58.6523 99.9834C58.7812 99.2803 58.9014 98.7354 59.0127 98.3486L60.8848 91.1504H63.46L65.332 98.3486C65.4141 98.6709 65.5166 99.1631 65.6396 99.8252C65.7627 100.487 65.8564 101.056 65.9209 101.53C65.9795 101.073 66.0732 100.505 66.2021 99.8252C66.3311 99.1396 66.4482 98.5859 66.5537 98.1641L68.1885 91.1504H70.8691L67.5996 104ZM78.5156 104L77.9971 102.664H77.9268C77.4756 103.232 77.0098 103.628 76.5293 103.851C76.0547 104.067 75.4336 104.176 74.666 104.176C73.7227 104.176 72.9785 103.906 72.4336 103.367C71.8945 102.828 71.625 102.061 71.625 101.064C71.625 100.021 71.9883 99.2539 72.7148 98.7617C73.4473 98.2637 74.5488 97.9883 76.0195 97.9355L77.7246 97.8828V97.4521C77.7246 96.4561 77.2148 95.958 76.1953 95.958C75.4102 95.958 74.4873 96.1953 73.4268 96.6699L72.5391 94.8594C73.6699 94.2676 74.9238 93.9717 76.3008 93.9717C77.6191 93.9717 78.6299 94.2588 79.333 94.833C80.0361 95.4072 80.3877 96.2803 80.3877 97.4521V104H78.5156ZM77.7246 99.4473L76.6875 99.4824C75.9082 99.5059 75.3281 99.6465 74.9473 99.9043C74.5664 100.162 74.376 100.555 74.376 101.082C74.376 101.838 74.8096 102.216 75.6768 102.216C76.2979 102.216 76.793 102.037 77.1621 101.68C77.5371 101.322 77.7246 100.848 77.7246 100.256V99.4473ZM88.6406 93.9893C89.0039 93.9893 89.3057 94.0156 89.5459 94.0684L89.3438 96.582C89.127 96.5234 88.8633 96.4941 88.5527 96.4941C87.6973 96.4941 87.0293 96.7139 86.5488 97.1533C86.0742 97.5928 85.8369 98.208 85.8369 98.999V104H83.1562V94.1738H85.1865L85.582 95.8262H85.7139C86.0186 95.2754 86.4287 94.833 86.9443 94.499C87.4658 94.1592 88.0312 93.9893 88.6406 93.9893ZM98.1855 101.082C98.1855 102.09 97.834 102.857 97.1309 103.385C96.4336 103.912 95.3877 104.176 93.9932 104.176C93.2783 104.176 92.6689 104.126 92.165 104.026C91.6611 103.933 91.1895 103.792 90.75 103.604V101.39C91.248 101.624 91.8076 101.82 92.4287 101.979C93.0557 102.137 93.6064 102.216 94.0811 102.216C95.0537 102.216 95.54 101.935 95.54 101.372C95.54 101.161 95.4756 100.991 95.3467 100.862C95.2178 100.728 94.9951 100.578 94.6787 100.414C94.3623 100.244 93.9404 100.048 93.4131 99.8252C92.6572 99.5088 92.1006 99.2158 91.7432 98.9463C91.3916 98.6768 91.1338 98.3691 90.9697 98.0234C90.8115 97.6719 90.7324 97.2412 90.7324 96.7314C90.7324 95.8584 91.0693 95.1846 91.7432 94.71C92.4229 94.2295 93.3838 93.9893 94.626 93.9893C95.8096 93.9893 96.9609 94.2471 98.0801 94.7627L97.2715 96.6963C96.7793 96.4854 96.3193 96.3125 95.8916 96.1777C95.4639 96.043 95.0273 95.9756 94.582 95.9756C93.791 95.9756 93.3955 96.1895 93.3955 96.6172C93.3955 96.8574 93.5215 97.0654 93.7734 97.2412C94.0312 97.417 94.5908 97.6777 95.4521 98.0234C96.2197 98.334 96.7822 98.624 97.1396 98.8936C97.4971 99.1631 97.7607 99.4736 97.9307 99.8252C98.1006 100.177 98.1855 100.596 98.1855 101.082Z" fill="#FEF9F3"/>
<circle cx="42" cy="41" r="30" fill="white" fill-opacity="0.2"/>
<circle cx="103" cy="46" r="15" fill="white" fill-opacity="0.2"/>
</svg>
