<svg width="320" height="121" viewBox="0 0 320 121" fill="none" xmlns="http://www.w3.org/2000/svg">
<g clip-path="url(#clip0)">
<path d="M318 301L318 93.9389C318 93.9389 293.144 41.6898 229.239 47.753C165.334 53.8161 152.08 86.4718 74.9214 26.2877C74.9214 26.2877 47.7017 1.0991 -1.99997 2.02484L-2 301L318 301Z" fill="#F5C371" fill-opacity="0.1"/>
<path d="M11.589 -2.69621e-05C51.7768 -2.34488e-05 75.5906 14.5353 75.8447 14.7027C123.462 44.0524 152.653 38.4552 193.044 30.6972C203.756 28.6401 214.845 26.5112 227.489 24.7252C289.285 15.9865 319.695 41.4053 320 41.6684L319.248 42.2027C318.953 41.9475 288.868 16.8556 227.682 25.5066C215.059 27.2926 204 29.4135 193.298 31.4706C152.622 39.2764 123.239 44.9136 75.2247 15.3247C74.9299 15.1413 46.0342 -2.4797 -1.88821 1.3395L-1.98983 0.550131C2.71601 0.167411 7.24906 -2.73416e-05 11.589 -2.69621e-05Z" fill="#F5C371" fill-opacity="0.2"/>
</g>
<defs>
<clipPath id="clip0">
<rect width="322" height="301" fill="white" transform="translate(320 301) rotate(-180)"/>
</clipPath>
</defs>
</svg>
